<?xml version="1.0" encoding="utf-8" standalone="no"?>
<!DOCTYPE svg PUBLIC "-//W3C//DTD SVG 1.1//EN"
  "http://www.w3.org/Graphics/SVG/1.1/DTD/svg11.dtd">
<!-- Created with matplotlib (https://matplotlib.org/) -->
<svg height="470.075312pt" version="1.1" viewBox="0 0 607.371875 470.075312" width="607.371875pt" xmlns="http://www.w3.org/2000/svg" xmlns:xlink="http://www.w3.org/1999/xlink">
 <defs>
  <style type="text/css">
*{stroke-linecap:butt;stroke-linejoin:round;}
  </style>
 </defs>
 <g id="figure_1">
  <g id="patch_1">
   <path d="M 0 470.075312 
L 607.371875 470.075312 
L 607.371875 0 
L 0 0 
z
" style="fill:#ffffff;"/>
  </g>
  <g id="axes_1">
   <g id="patch_2">
    <path d="M 41.420313 434.88 
L 599.420313 434.88 
L 599.420313 -0 
L 41.420313 -0 
z
" style="fill:#ffffff;"/>
   </g>
   <g id="matplotlib.axis_1">
    <g id="xtick_1">
     <g id="line2d_1">
      <defs>
       <path d="M 0 0 
L 0 3.5 
" id="mcfbea04051" style="stroke:#000000;stroke-width:0.8;"/>
      </defs>
      <g>
       <use style="stroke:#000000;stroke-width:0.8;" x="41.420313" xlink:href="#mcfbea04051" y="434.88"/>
      </g>
     </g>
     <g id="text_1">
      <!-- 0.0 -->
      <defs>
       <path d="M 31.78125 66.40625 
Q 24.171875 66.40625 20.328125 58.90625 
Q 16.5 51.421875 16.5 36.375 
Q 16.5 21.390625 20.328125 13.890625 
Q 24.171875 6.390625 31.78125 6.390625 
Q 39.453125 6.390625 43.28125 13.890625 
Q 47.125 21.390625 47.125 36.375 
Q 47.125 51.421875 43.28125 58.90625 
Q 39.453125 66.40625 31.78125 66.40625 
z
M 31.78125 74.21875 
Q 44.046875 74.21875 50.515625 64.515625 
Q 56.984375 54.828125 56.984375 36.375 
Q 56.984375 17.96875 50.515625 8.265625 
Q 44.046875 -1.421875 31.78125 -1.421875 
Q 19.53125 -1.421875 13.0625 8.265625 
Q 6.59375 17.96875 6.59375 36.375 
Q 6.59375 54.828125 13.0625 64.515625 
Q 19.53125 74.21875 31.78125 74.21875 
z
" id="DejaVuSans-48"/>
       <path d="M 10.6875 12.40625 
L 21 12.40625 
L 21 0 
L 10.6875 0 
z
" id="DejaVuSans-46"/>
      </defs>
      <g transform="translate(33.46875 449.478437)scale(0.1 -0.1)">
       <use xlink:href="#DejaVuSans-48"/>
       <use x="63.623047" xlink:href="#DejaVuSans-46"/>
       <use x="95.410156" xlink:href="#DejaVuSans-48"/>
      </g>
     </g>
    </g>
    <g id="xtick_2">
     <g id="line2d_2">
      <g>
       <use style="stroke:#000000;stroke-width:0.8;" x="153.020313" xlink:href="#mcfbea04051" y="434.88"/>
      </g>
     </g>
     <g id="text_2">
      <!-- 0.2 -->
      <defs>
       <path d="M 19.1875 8.296875 
L 53.609375 8.296875 
L 53.609375 0 
L 7.328125 0 
L 7.328125 8.296875 
Q 12.9375 14.109375 22.625 23.890625 
Q 32.328125 33.6875 34.8125 36.53125 
Q 39.546875 41.84375 41.421875 45.53125 
Q 43.3125 49.21875 43.3125 52.78125 
Q 43.3125 58.59375 39.234375 62.25 
Q 35.15625 65.921875 28.609375 65.921875 
Q 23.96875 65.921875 18.8125 64.3125 
Q 13.671875 62.703125 7.8125 59.421875 
L 7.8125 69.390625 
Q 13.765625 71.78125 18.9375 73 
Q 24.125 74.21875 28.421875 74.21875 
Q 39.75 74.21875 46.484375 68.546875 
Q 53.21875 62.890625 53.21875 53.421875 
Q 53.21875 48.921875 51.53125 44.890625 
Q 49.859375 40.875 45.40625 35.40625 
Q 44.1875 33.984375 37.640625 27.21875 
Q 31.109375 20.453125 19.1875 8.296875 
z
" id="DejaVuSans-50"/>
      </defs>
      <g transform="translate(145.06875 449.478437)scale(0.1 -0.1)">
       <use xlink:href="#DejaVuSans-48"/>
       <use x="63.623047" xlink:href="#DejaVuSans-46"/>
       <use x="95.410156" xlink:href="#DejaVuSans-50"/>
      </g>
     </g>
    </g>
    <g id="xtick_3">
     <g id="line2d_3">
      <g>
       <use style="stroke:#000000;stroke-width:0.8;" x="264.620313" xlink:href="#mcfbea04051" y="434.88"/>
      </g>
     </g>
     <g id="text_3">
      <!-- 0.4 -->
      <defs>
       <path d="M 37.796875 64.3125 
L 12.890625 25.390625 
L 37.796875 25.390625 
z
M 35.203125 72.90625 
L 47.609375 72.90625 
L 47.609375 25.390625 
L 58.015625 25.390625 
L 58.015625 17.1875 
L 47.609375 17.1875 
L 47.609375 0 
L 37.796875 0 
L 37.796875 17.1875 
L 4.890625 17.1875 
L 4.890625 26.703125 
z
" id="DejaVuSans-52"/>
      </defs>
      <g transform="translate(256.66875 449.478437)scale(0.1 -0.1)">
       <use xlink:href="#DejaVuSans-48"/>
       <use x="63.623047" xlink:href="#DejaVuSans-46"/>
       <use x="95.410156" xlink:href="#DejaVuSans-52"/>
      </g>
     </g>
    </g>
    <g id="xtick_4">
     <g id="line2d_4">
      <g>
       <use style="stroke:#000000;stroke-width:0.8;" x="376.220313" xlink:href="#mcfbea04051" y="434.88"/>
      </g>
     </g>
     <g id="text_4">
      <!-- 0.6 -->
      <defs>
       <path d="M 33.015625 40.375 
Q 26.375 40.375 22.484375 35.828125 
Q 18.609375 31.296875 18.609375 23.390625 
Q 18.609375 15.53125 22.484375 10.953125 
Q 26.375 6.390625 33.015625 6.390625 
Q 39.65625 6.390625 43.53125 10.953125 
Q 47.40625 15.53125 47.40625 23.390625 
Q 47.40625 31.296875 43.53125 35.828125 
Q 39.65625 40.375 33.015625 40.375 
z
M 52.59375 71.296875 
L 52.59375 62.3125 
Q 48.875 64.0625 45.09375 64.984375 
Q 41.3125 65.921875 37.59375 65.921875 
Q 27.828125 65.921875 22.671875 59.328125 
Q 17.53125 52.734375 16.796875 39.40625 
Q 19.671875 43.65625 24.015625 45.921875 
Q 28.375 48.1875 33.59375 48.1875 
Q 44.578125 48.1875 50.953125 41.515625 
Q 57.328125 34.859375 57.328125 23.390625 
Q 57.328125 12.15625 50.6875 5.359375 
Q 44.046875 -1.421875 33.015625 -1.421875 
Q 20.359375 -1.421875 13.671875 8.265625 
Q 6.984375 17.96875 6.984375 36.375 
Q 6.984375 53.65625 15.1875 63.9375 
Q 23.390625 74.21875 37.203125 74.21875 
Q 40.921875 74.21875 44.703125 73.484375 
Q 48.484375 72.75 52.59375 71.296875 
z
" id="DejaVuSans-54"/>
      </defs>
      <g transform="translate(368.26875 449.478437)scale(0.1 -0.1)">
       <use xlink:href="#DejaVuSans-48"/>
       <use x="63.623047" xlink:href="#DejaVuSans-46"/>
       <use x="95.410156" xlink:href="#DejaVuSans-54"/>
      </g>
     </g>
    </g>
    <g id="xtick_5">
     <g id="line2d_5">
      <g>
       <use style="stroke:#000000;stroke-width:0.8;" x="487.820313" xlink:href="#mcfbea04051" y="434.88"/>
      </g>
     </g>
     <g id="text_5">
      <!-- 0.8 -->
      <defs>
       <path d="M 31.78125 34.625 
Q 24.75 34.625 20.71875 30.859375 
Q 16.703125 27.09375 16.703125 20.515625 
Q 16.703125 13.921875 20.71875 10.15625 
Q 24.75 6.390625 31.78125 6.390625 
Q 38.8125 6.390625 42.859375 10.171875 
Q 46.921875 13.96875 46.921875 20.515625 
Q 46.921875 27.09375 42.890625 30.859375 
Q 38.875 34.625 31.78125 34.625 
z
M 21.921875 38.8125 
Q 15.578125 40.375 12.03125 44.71875 
Q 8.5 49.078125 8.5 55.328125 
Q 8.5 64.0625 14.71875 69.140625 
Q 20.953125 74.21875 31.78125 74.21875 
Q 42.671875 74.21875 48.875 69.140625 
Q 55.078125 64.0625 55.078125 55.328125 
Q 55.078125 49.078125 51.53125 44.71875 
Q 48 40.375 41.703125 38.8125 
Q 48.828125 37.15625 52.796875 32.3125 
Q 56.78125 27.484375 56.78125 20.515625 
Q 56.78125 9.90625 50.3125 4.234375 
Q 43.84375 -1.421875 31.78125 -1.421875 
Q 19.734375 -1.421875 13.25 4.234375 
Q 6.78125 9.90625 6.78125 20.515625 
Q 6.78125 27.484375 10.78125 32.3125 
Q 14.796875 37.15625 21.921875 38.8125 
z
M 18.3125 54.390625 
Q 18.3125 48.734375 21.84375 45.5625 
Q 25.390625 42.390625 31.78125 42.390625 
Q 38.140625 42.390625 41.71875 45.5625 
Q 45.3125 48.734375 45.3125 54.390625 
Q 45.3125 60.0625 41.71875 63.234375 
Q 38.140625 66.40625 31.78125 66.40625 
Q 25.390625 66.40625 21.84375 63.234375 
Q 18.3125 60.0625 18.3125 54.390625 
z
" id="DejaVuSans-56"/>
      </defs>
      <g transform="translate(479.86875 449.478437)scale(0.1 -0.1)">
       <use xlink:href="#DejaVuSans-48"/>
       <use x="63.623047" xlink:href="#DejaVuSans-46"/>
       <use x="95.410156" xlink:href="#DejaVuSans-56"/>
      </g>
     </g>
    </g>
    <g id="xtick_6">
     <g id="line2d_6">
      <g>
       <use style="stroke:#000000;stroke-width:0.8;" x="599.420313" xlink:href="#mcfbea04051" y="434.88"/>
      </g>
     </g>
     <g id="text_6">
      <!-- 1.0 -->
      <defs>
       <path d="M 12.40625 8.296875 
L 28.515625 8.296875 
L 28.515625 63.921875 
L 10.984375 60.40625 
L 10.984375 69.390625 
L 28.421875 72.90625 
L 38.28125 72.90625 
L 38.28125 8.296875 
L 54.390625 8.296875 
L 54.390625 0 
L 12.40625 0 
z
" id="DejaVuSans-49"/>
      </defs>
      <g transform="translate(591.46875 449.478437)scale(0.1 -0.1)">
       <use xlink:href="#DejaVuSans-49"/>
       <use x="63.623047" xlink:href="#DejaVuSans-46"/>
       <use x="95.410156" xlink:href="#DejaVuSans-48"/>
      </g>
     </g>
    </g>
    <g id="text_7">
     <!-- False Positive Rate -->
     <defs>
      <path d="M 9.8125 72.90625 
L 51.703125 72.90625 
L 51.703125 64.59375 
L 19.671875 64.59375 
L 19.671875 43.109375 
L 48.578125 43.109375 
L 48.578125 34.8125 
L 19.671875 34.8125 
L 19.671875 0 
L 9.8125 0 
z
" id="DejaVuSans-70"/>
      <path d="M 34.28125 27.484375 
Q 23.390625 27.484375 19.1875 25 
Q 14.984375 22.515625 14.984375 16.5 
Q 14.984375 11.71875 18.140625 8.90625 
Q 21.296875 6.109375 26.703125 6.109375 
Q 34.1875 6.109375 38.703125 11.40625 
Q 43.21875 16.703125 43.21875 25.484375 
L 43.21875 27.484375 
z
M 52.203125 31.203125 
L 52.203125 0 
L 43.21875 0 
L 43.21875 8.296875 
Q 40.140625 3.328125 35.546875 0.953125 
Q 30.953125 -1.421875 24.3125 -1.421875 
Q 15.921875 -1.421875 10.953125 3.296875 
Q 6 8.015625 6 15.921875 
Q 6 25.140625 12.171875 29.828125 
Q 18.359375 34.515625 30.609375 34.515625 
L 43.21875 34.515625 
L 43.21875 35.40625 
Q 43.21875 41.609375 39.140625 45 
Q 35.0625 48.390625 27.6875 48.390625 
Q 23 48.390625 18.546875 47.265625 
Q 14.109375 46.140625 10.015625 43.890625 
L 10.015625 52.203125 
Q 14.9375 54.109375 19.578125 55.046875 
Q 24.21875 56 28.609375 56 
Q 40.484375 56 46.34375 49.84375 
Q 52.203125 43.703125 52.203125 31.203125 
z
" id="DejaVuSans-97"/>
      <path d="M 9.421875 75.984375 
L 18.40625 75.984375 
L 18.40625 0 
L 9.421875 0 
z
" id="DejaVuSans-108"/>
      <path d="M 44.28125 53.078125 
L 44.28125 44.578125 
Q 40.484375 46.53125 36.375 47.5 
Q 32.28125 48.484375 27.875 48.484375 
Q 21.1875 48.484375 17.84375 46.4375 
Q 14.5 44.390625 14.5 40.28125 
Q 14.5 37.15625 16.890625 35.375 
Q 19.28125 33.59375 26.515625 31.984375 
L 29.59375 31.296875 
Q 39.15625 29.25 43.1875 25.515625 
Q 47.21875 21.78125 47.21875 15.09375 
Q 47.21875 7.46875 41.1875 3.015625 
Q 35.15625 -1.421875 24.609375 -1.421875 
Q 20.21875 -1.421875 15.453125 -0.5625 
Q 10.6875 0.296875 5.421875 2 
L 5.421875 11.28125 
Q 10.40625 8.6875 15.234375 7.390625 
Q 20.0625 6.109375 24.8125 6.109375 
Q 31.15625 6.109375 34.5625 8.28125 
Q 37.984375 10.453125 37.984375 14.40625 
Q 37.984375 18.0625 35.515625 20.015625 
Q 33.0625 21.96875 24.703125 23.78125 
L 21.578125 24.515625 
Q 13.234375 26.265625 9.515625 29.90625 
Q 5.8125 33.546875 5.8125 39.890625 
Q 5.8125 47.609375 11.28125 51.796875 
Q 16.75 56 26.8125 56 
Q 31.78125 56 36.171875 55.265625 
Q 40.578125 54.546875 44.28125 53.078125 
z
" id="DejaVuSans-115"/>
      <path d="M 56.203125 29.59375 
L 56.203125 25.203125 
L 14.890625 25.203125 
Q 15.484375 15.921875 20.484375 11.0625 
Q 25.484375 6.203125 34.421875 6.203125 
Q 39.59375 6.203125 44.453125 7.46875 
Q 49.3125 8.734375 54.109375 11.28125 
L 54.109375 2.78125 
Q 49.265625 0.734375 44.1875 -0.34375 
Q 39.109375 -1.421875 33.890625 -1.421875 
Q 20.796875 -1.421875 13.15625 6.1875 
Q 5.515625 13.8125 5.515625 26.8125 
Q 5.515625 40.234375 12.765625 48.109375 
Q 20.015625 56 32.328125 56 
Q 43.359375 56 49.78125 48.890625 
Q 56.203125 41.796875 56.203125 29.59375 
z
M 47.21875 32.234375 
Q 47.125 39.59375 43.09375 43.984375 
Q 39.0625 48.390625 32.421875 48.390625 
Q 24.90625 48.390625 20.390625 44.140625 
Q 15.875 39.890625 15.1875 32.171875 
z
" id="DejaVuSans-101"/>
      <path id="DejaVuSans-32"/>
      <path d="M 19.671875 64.796875 
L 19.671875 37.40625 
L 32.078125 37.40625 
Q 38.96875 37.40625 42.71875 40.96875 
Q 46.484375 44.53125 46.484375 51.125 
Q 46.484375 57.671875 42.71875 61.234375 
Q 38.96875 64.796875 32.078125 64.796875 
z
M 9.8125 72.90625 
L 32.078125 72.90625 
Q 44.34375 72.90625 50.609375 67.359375 
Q 56.890625 61.8125 56.890625 51.125 
Q 56.890625 40.328125 50.609375 34.8125 
Q 44.34375 29.296875 32.078125 29.296875 
L 19.671875 29.296875 
L 19.671875 0 
L 9.8125 0 
z
" id="DejaVuSans-80"/>
      <path d="M 30.609375 48.390625 
Q 23.390625 48.390625 19.1875 42.75 
Q 14.984375 37.109375 14.984375 27.296875 
Q 14.984375 17.484375 19.15625 11.84375 
Q 23.34375 6.203125 30.609375 6.203125 
Q 37.796875 6.203125 41.984375 11.859375 
Q 46.1875 17.53125 46.1875 27.296875 
Q 46.1875 37.015625 41.984375 42.703125 
Q 37.796875 48.390625 30.609375 48.390625 
z
M 30.609375 56 
Q 42.328125 56 49.015625 48.375 
Q 55.71875 40.765625 55.71875 27.296875 
Q 55.71875 13.875 49.015625 6.21875 
Q 42.328125 -1.421875 30.609375 -1.421875 
Q 18.84375 -1.421875 12.171875 6.21875 
Q 5.515625 13.875 5.515625 27.296875 
Q 5.515625 40.765625 12.171875 48.375 
Q 18.84375 56 30.609375 56 
z
" id="DejaVuSans-111"/>
      <path d="M 9.421875 54.6875 
L 18.40625 54.6875 
L 18.40625 0 
L 9.421875 0 
z
M 9.421875 75.984375 
L 18.40625 75.984375 
L 18.40625 64.59375 
L 9.421875 64.59375 
z
" id="DejaVuSans-105"/>
      <path d="M 18.3125 70.21875 
L 18.3125 54.6875 
L 36.8125 54.6875 
L 36.8125 47.703125 
L 18.3125 47.703125 
L 18.3125 18.015625 
Q 18.3125 11.328125 20.140625 9.421875 
Q 21.96875 7.515625 27.59375 7.515625 
L 36.8125 7.515625 
L 36.8125 0 
L 27.59375 0 
Q 17.1875 0 13.234375 3.875 
Q 9.28125 7.765625 9.28125 18.015625 
L 9.28125 47.703125 
L 2.6875 47.703125 
L 2.6875 54.6875 
L 9.28125 54.6875 
L 9.28125 70.21875 
z
" id="DejaVuSans-116"/>
      <path d="M 2.984375 54.6875 
L 12.5 54.6875 
L 29.59375 8.796875 
L 46.6875 54.6875 
L 56.203125 54.6875 
L 35.6875 0 
L 23.484375 0 
z
" id="DejaVuSans-118"/>
      <path d="M 44.390625 34.1875 
Q 47.5625 33.109375 50.5625 29.59375 
Q 53.5625 26.078125 56.59375 19.921875 
L 66.609375 0 
L 56 0 
L 46.6875 18.703125 
Q 43.0625 26.03125 39.671875 28.421875 
Q 36.28125 30.8125 30.421875 30.8125 
L 19.671875 30.8125 
L 19.671875 0 
L 9.8125 0 
L 9.8125 72.90625 
L 32.078125 72.90625 
Q 44.578125 72.90625 50.734375 67.671875 
Q 56.890625 62.453125 56.890625 51.90625 
Q 56.890625 45.015625 53.6875 40.46875 
Q 50.484375 35.9375 44.390625 34.1875 
z
M 19.671875 64.796875 
L 19.671875 38.921875 
L 32.078125 38.921875 
Q 39.203125 38.921875 42.84375 42.21875 
Q 46.484375 45.515625 46.484375 51.90625 
Q 46.484375 58.296875 42.84375 61.546875 
Q 39.203125 64.796875 32.078125 64.796875 
z
" id="DejaVuSans-82"/>
     </defs>
     <g transform="translate(250.720703 466.955781)scale(0.15 -0.15)">
      <use xlink:href="#DejaVuSans-70"/>
      <use x="48.394531" xlink:href="#DejaVuSans-97"/>
      <use x="109.673828" xlink:href="#DejaVuSans-108"/>
      <use x="137.457031" xlink:href="#DejaVuSans-115"/>
      <use x="189.556641" xlink:href="#DejaVuSans-101"/>
      <use x="251.080078" xlink:href="#DejaVuSans-32"/>
      <use x="282.867188" xlink:href="#DejaVuSans-80"/>
      <use x="339.544922" xlink:href="#DejaVuSans-111"/>
      <use x="400.726562" xlink:href="#DejaVuSans-115"/>
      <use x="452.826172" xlink:href="#DejaVuSans-105"/>
      <use x="480.609375" xlink:href="#DejaVuSans-116"/>
      <use x="519.818359" xlink:href="#DejaVuSans-105"/>
      <use x="547.601562" xlink:href="#DejaVuSans-118"/>
      <use x="606.78125" xlink:href="#DejaVuSans-101"/>
      <use x="668.304688" xlink:href="#DejaVuSans-32"/>
      <use x="700.091797" xlink:href="#DejaVuSans-82"/>
      <use x="767.324219" xlink:href="#DejaVuSans-97"/>
      <use x="828.603516" xlink:href="#DejaVuSans-116"/>
      <use x="867.8125" xlink:href="#DejaVuSans-101"/>
     </g>
    </g>
   </g>
   <g id="matplotlib.axis_2">
    <g id="ytick_1">
     <g id="line2d_7">
      <defs>
       <path d="M 0 0 
L -3.5 0 
" id="m6f0db610b0" style="stroke:#000000;stroke-width:0.8;"/>
      </defs>
      <g>
       <use style="stroke:#000000;stroke-width:0.8;" x="41.420313" xlink:href="#m6f0db610b0" y="434.88"/>
      </g>
     </g>
     <g id="text_8">
      <!-- 0.0 -->
      <g transform="translate(18.517188 438.679219)scale(0.1 -0.1)">
       <use xlink:href="#DejaVuSans-48"/>
       <use x="63.623047" xlink:href="#DejaVuSans-46"/>
       <use x="95.410156" xlink:href="#DejaVuSans-48"/>
      </g>
     </g>
    </g>
    <g id="ytick_2">
     <g id="line2d_8">
      <g>
       <use style="stroke:#000000;stroke-width:0.8;" x="41.420313" xlink:href="#m6f0db610b0" y="352.045714"/>
      </g>
     </g>
     <g id="text_9">
      <!-- 0.2 -->
      <g transform="translate(18.517188 355.844933)scale(0.1 -0.1)">
       <use xlink:href="#DejaVuSans-48"/>
       <use x="63.623047" xlink:href="#DejaVuSans-46"/>
       <use x="95.410156" xlink:href="#DejaVuSans-50"/>
      </g>
     </g>
    </g>
    <g id="ytick_3">
     <g id="line2d_9">
      <g>
       <use style="stroke:#000000;stroke-width:0.8;" x="41.420313" xlink:href="#m6f0db610b0" y="269.211429"/>
      </g>
     </g>
     <g id="text_10">
      <!-- 0.4 -->
      <g transform="translate(18.517188 273.010647)scale(0.1 -0.1)">
       <use xlink:href="#DejaVuSans-48"/>
       <use x="63.623047" xlink:href="#DejaVuSans-46"/>
       <use x="95.410156" xlink:href="#DejaVuSans-52"/>
      </g>
     </g>
    </g>
    <g id="ytick_4">
     <g id="line2d_10">
      <g>
       <use style="stroke:#000000;stroke-width:0.8;" x="41.420313" xlink:href="#m6f0db610b0" y="186.377143"/>
      </g>
     </g>
     <g id="text_11">
      <!-- 0.6 -->
      <g transform="translate(18.517188 190.176362)scale(0.1 -0.1)">
       <use xlink:href="#DejaVuSans-48"/>
       <use x="63.623047" xlink:href="#DejaVuSans-46"/>
       <use x="95.410156" xlink:href="#DejaVuSans-54"/>
      </g>
     </g>
    </g>
    <g id="ytick_5">
     <g id="line2d_11">
      <g>
       <use style="stroke:#000000;stroke-width:0.8;" x="41.420313" xlink:href="#m6f0db610b0" y="103.542857"/>
      </g>
     </g>
     <g id="text_12">
      <!-- 0.8 -->
      <g transform="translate(18.517188 107.342076)scale(0.1 -0.1)">
       <use xlink:href="#DejaVuSans-48"/>
       <use x="63.623047" xlink:href="#DejaVuSans-46"/>
       <use x="95.410156" xlink:href="#DejaVuSans-56"/>
      </g>
     </g>
    </g>
    <g id="ytick_6">
     <g id="line2d_12">
      <g>
       <use style="stroke:#000000;stroke-width:0.8;" x="41.420313" xlink:href="#m6f0db610b0" y="20.708571"/>
      </g>
     </g>
     <g id="text_13">
      <!-- 1.0 -->
      <g transform="translate(18.517188 24.50779)scale(0.1 -0.1)">
       <use xlink:href="#DejaVuSans-49"/>
       <use x="63.623047" xlink:href="#DejaVuSans-46"/>
       <use x="95.410156" xlink:href="#DejaVuSans-48"/>
      </g>
     </g>
    </g>
    <g id="text_14">
     <!-- True Positive Rate -->
     <defs>
      <path d="M -0.296875 72.90625 
L 61.375 72.90625 
L 61.375 64.59375 
L 35.5 64.59375 
L 35.5 0 
L 25.59375 0 
L 25.59375 64.59375 
L -0.296875 64.59375 
z
" id="DejaVuSans-84"/>
      <path d="M 41.109375 46.296875 
Q 39.59375 47.171875 37.8125 47.578125 
Q 36.03125 48 33.890625 48 
Q 26.265625 48 22.1875 43.046875 
Q 18.109375 38.09375 18.109375 28.8125 
L 18.109375 0 
L 9.078125 0 
L 9.078125 54.6875 
L 18.109375 54.6875 
L 18.109375 46.1875 
Q 20.953125 51.171875 25.484375 53.578125 
Q 30.03125 56 36.53125 56 
Q 37.453125 56 38.578125 55.875 
Q 39.703125 55.765625 41.0625 55.515625 
z
" id="DejaVuSans-114"/>
      <path d="M 8.5 21.578125 
L 8.5 54.6875 
L 17.484375 54.6875 
L 17.484375 21.921875 
Q 17.484375 14.15625 20.5 10.265625 
Q 23.53125 6.390625 29.59375 6.390625 
Q 36.859375 6.390625 41.078125 11.03125 
Q 45.3125 15.671875 45.3125 23.6875 
L 45.3125 54.6875 
L 54.296875 54.6875 
L 54.296875 0 
L 45.3125 0 
L 45.3125 8.40625 
Q 42.046875 3.421875 37.71875 1 
Q 33.40625 -1.421875 27.6875 -1.421875 
Q 18.265625 -1.421875 13.375 4.4375 
Q 8.5 10.296875 8.5 21.578125 
z
M 31.109375 56 
z
" id="DejaVuSans-117"/>
     </defs>
     <g transform="translate(11.397656 284.234531)rotate(-90)scale(0.15 -0.15)">
      <use xlink:href="#DejaVuSans-84"/>
      <use x="46.333984" xlink:href="#DejaVuSans-114"/>
      <use x="87.447266" xlink:href="#DejaVuSans-117"/>
      <use x="150.826172" xlink:href="#DejaVuSans-101"/>
      <use x="212.349609" xlink:href="#DejaVuSans-32"/>
      <use x="244.136719" xlink:href="#DejaVuSans-80"/>
      <use x="300.814453" xlink:href="#DejaVuSans-111"/>
      <use x="361.996094" xlink:href="#DejaVuSans-115"/>
      <use x="414.095703" xlink:href="#DejaVuSans-105"/>
      <use x="441.878906" xlink:href="#DejaVuSans-116"/>
      <use x="481.087891" xlink:href="#DejaVuSans-105"/>
      <use x="508.871094" xlink:href="#DejaVuSans-118"/>
      <use x="568.050781" xlink:href="#DejaVuSans-101"/>
      <use x="629.574219" xlink:href="#DejaVuSans-32"/>
      <use x="661.361328" xlink:href="#DejaVuSans-82"/>
      <use x="728.59375" xlink:href="#DejaVuSans-97"/>
      <use x="789.873047" xlink:href="#DejaVuSans-116"/>
      <use x="829.082031" xlink:href="#DejaVuSans-101"/>
     </g>
    </g>
   </g>
   <g id="line2d_13">
    <path clip-path="url(#p4f739f1440)" d="M 41.420313 297.236358 
L 41.661453 295.210362 
L 41.67189 258.269244 
L 41.903011 257.432535 
L 41.92121 246.020194 
L 42.143735 245.730766 
L 42.175046 232.077062 
L 42.390326 231.03729 
L 42.426624 223.085363 
L 42.623417 222.765786 
L 42.672557 210.805604 
L 42.867158 210.226748 
L 42.918299 205.421349 
L 43.109759 204.026832 
L 43.181358 197.734961 
L 43.34944 197.156105 
L 43.405195 192.566065 
L 43.592458 191.708306 
L 43.667292 187.233684 
L 43.826522 186.914107 
L 43.936092 181.341664 
L 44.067143 181.022087 
L 44.166621 178.922456 
L 44.331617 178.464555 
L 44.425698 175.275995 
L 44.587998 174.85764 
L 44.676147 174.617285 
L 44.690826 173.793678 
L 44.816834 173.335777 
L 44.915615 170.604006 
L 45.073739 168.712716 
L 45.165279 167.149568 
L 45.278567 166.86014 
L 45.406027 164.68739 
L 45.560862 163.804662 
L 45.852793 160.645206 
L 45.928391 159.57197 
L 46.107315 157.490866 
L 46.276709 157.268551 
L 46.369315 156.140551 
L 46.451872 156.0376 
L 46.955028 153.377397 
L 47.039402 152.806295 
L 47.606565 149.546224 
L 47.695399 149.151111 
L 47.854015 148.009534 
L 47.931982 147.899177 
L 49.15991 141.228802 
L 49.426399 140.731958 
L 49.482484 139.700149 
L 49.659239 139.467729 
L 49.722386 138.966345 
L 49.856062 138.836348 
L 50.161827 137.15684 
L 50.188536 136.955002 
L 50.328516 136.818041 
L 50.404647 136.075253 
L 50.600393 135.808295 
L 50.679701 135.380127 
L 50.890286 135.157813 
L 50.990233 134.657522 
L 51.188365 134.241503 
L 51.235616 133.788793 
L 51.534371 133.259533 
L 51.882813 131.231074 
L 52.522389 130.213815 
L 52.658491 128.793842 
L 52.9929 128.032109 
L 53.154541 126.902273 
L 53.577716 126.427116 
L 53.747634 126.213807 
L 53.793356 125.984857 
L 53.874579 124.911707 
L 54.030482 124.281925 
L 54.057943 123.843559 
L 54.22291 123.285014 
L 54.278573 122.724162 
L 54.44192 121.57142 
L 54.584139 121.155619 
L 54.916355 120.990677 
L 56.447242 119.212776 
L 56.697691 118.184362 
L 57.183024 117.951943 
L 57.454795 117.441691 
L 57.772882 117.139524 
L 57.910534 116.786319 
L 57.989745 116.435225 
L 58.411486 115.136004 
L 59.030772 114.916844 
L 59.452628 114.043091 
L 59.459631 113.846429 
L 59.921639 113.410316 
L 60.174568 113.078481 
L 60.601563 112.820735 
L 60.85067 112.32729 
L 61.143802 112.211081 
L 61.314226 111.703227 
L 62.013465 110.650897 
L 62.31191 109.787008 
L 63.254016 107.524815 
L 63.621904 107.248725 
L 64.375236 105.989191 
L 64.565488 105.684402 
L 64.962503 105.574045 
L 65.118211 105.040094 
L 65.438573 104.584576 
L 65.712868 103.469428 
L 66.47945 102.674908 
L 66.518129 102.475691 
L 66.817249 102.288622 
L 66.907674 102.005568 
L 67.216542 101.89521 
L 67.322169 101.45969 
L 67.568854 100.653154 
L 67.86466 99.729907 
L 68.134406 99.613698 
L 68.474858 99.11563 
L 68.719235 98.776322 
L 69.382729 98.543903 
L 69.416852 98.264999 
L 69.747665 97.974979 
L 69.882057 97.317542 
L 71.111605 96.501825 
L 71.114326 96.364863 
L 71.879373 95.025546 
L 72.558705 94.49171 
L 72.682207 94.361713 
L 73.477763 94.140998 
L 73.486486 93.92186 
L 73.913307 93.737044 
L 73.922758 93.607047 
L 74.376017 93.338959 
L 74.643259 92.711427 
L 75.450589 92.046519 
L 75.481354 91.936161 
L 76.26464 91.771219 
L 76.54442 91.453771 
L 77.122326 91.337561 
L 77.145922 90.915608 
L 78.118048 90.143724 
L 78.587922 89.321366 
L 78.620313 88.989105 
L 78.785279 88.623193 
L 78.987637 88.296783 
L 79.205371 87.664931 
L 79.488535 87.554573 
L 79.493324 87.322154 
L 80.248321 87.135085 
L 80.76488 86.107988 
L 80.926909 85.543931 
L 81.190847 85.311511 
L 81.86595 85.195301 
L 82.173121 84.288127 
L 83.021205 83.934923 
L 84.607648 81.865145 
L 84.760118 81.444149 
L 86.35991 81.098989 
L 86.788139 80.450613 
L 86.951133 80.313652 
L 87.030747 80.084702 
L 87.330159 79.897632 
L 87.446033 79.541532 
L 87.557975 79.272415 
L 88.223442 78.704625 
L 88.357225 78.309512 
L 89.973559 77.208009 
L 90.423843 76.655076 
L 90.7342 76.103676 
L 91.232977 75.938734 
L 91.5035 75.113095 
L 91.735912 74.893934 
L 92.368139 74.664984 
L 92.655299 74.44267 
L 92.677605 74.223531 
L 93.350514 74.107322 
L 93.429023 73.89127 
L 94.251692 73.572267 
L 94.435199 73.271242 
L 94.517198 72.790501 
L 96.184238 72.274499 
L 96.735095 72.045548 
L 96.997013 71.636648 
L 97.003754 71.317071 
L 97.172043 71.038168 
L 98.780096 70.798255 
L 98.993669 70.579117 
L 100.14433 70.023336 
L 101.318618 69.790916 
L 101.362671 69.5917 
L 101.839104 69.47549 
L 101.999032 68.977448 
L 103.697098 68.610456 
L 104.04302 68.058226 
L 104.483637 67.893284 
L 105.334406 67.777074 
L 105.509891 67.640112 
L 107.417645 67.510115 
L 107.492914 67.220687 
L 107.682813 67.099902 
L 108.580044 66.751273 
L 110.458893 65.535221 
L 112.914062 65.298227 
L 113.546077 65.09901 
L 113.817488 64.795254 
L 115.982758 64.205905 
L 116.727235 63.767628 
L 117.399092 63.308664 
L 120.219959 63.026788 
L 120.584607 62.591002 
L 121.134598 62.254165 
L 122.17685 62.035004 
L 122.931584 61.735391 
L 123.174946 61.583513 
L 123.780138 61.384296 
L 124.015001 61.165158 
L 124.050975 60.949106 
L 124.605009 60.597094 
L 125.472555 59.562958 
L 127.532951 59.425996 
L 127.853675 58.969329 
L 128.53113 58.582072 
L 129.332785 57.401059 
L 131.038494 56.828185 
L 132.547829 56.711976 
L 132.856276 56.170085 
L 137.326563 55.449377 
L 137.627209 55.303285 
L 140.094053 54.924773 
L 140.287427 54.808563 
L 142.806246 54.486452 
L 142.80692 54.365667 
L 146.122847 53.829591 
L 148.380488 53.642522 
L 148.550482 53.423383 
L 149.279259 53.204245 
L 151.10832 52.936351 
L 151.863054 52.617348 
L 153.515213 52.293318 
L 154.257563 51.927406 
L 155.017628 51.674235 
L 155.881851 51.295723 
L 156.979514 50.936447 
L 156.99551 50.771504 
L 157.832333 50.555453 
L 160.443816 50.302281 
L 160.590553 50.115212 
L 161.758568 49.882793 
L 162.507561 49.636586 
L 162.670867 49.280486 
L 163.435642 49.177535 
L 166.644729 48.930216 
L 166.680693 48.651313 
L 167.727668 48.466497 
L 169.97667 48.253189 
L 171.703348 47.986312 
L 173.75034 47.753364 
L 176.033173 47.40035 
L 176.715201 47.203688 
L 178.665398 47.007025 
L 179.46466 46.778075 
L 179.565944 46.626197 
L 182.052413 46.084117 
L 185.476688 45.967907 
L 186.196038 45.638021 
L 186.203943 45.418883 
L 187.840678 45.196569 
L 189.471319 44.506248 
L 193.511909 44.130044 
L 195.88398 43.851141 
L 196.379895 43.618721 
L 197.398671 43.51577 
L 197.417704 43.28682 
L 198.056126 42.842974 
L 202.262885 42.576015 
L 202.467091 42.424137 
L 204.909211 42.204999 
L 210.98235 41.98586 
L 211.140225 41.798791 
L 212.809545 41.417963 
L 214.849392 41.287965 
L 215.512287 40.906111 
L 217.933064 40.501062 
L 222.427024 40.268642 
L 222.885702 39.643425 
L 224.832486 39.414475 
L 227.744213 39.195337 
L 228.247347 38.846201 
L 229.201767 38.627063 
L 229.360339 38.178591 
L 230.472197 38.04163 
L 230.715905 37.752202 
L 233.0518 37.473299 
L 233.240391 37.240879 
L 237.656554 37.124669 
L 237.971764 36.959727 
L 241.628082 36.757889 
L 241.808385 36.468461 
L 242.562672 36.249322 
L 244.395541 36.016903 
L 247.462693 35.913952 
L 248.878737 35.694814 
L 248.991428 35.507744 
L 249.890111 35.391535 
L 250.093364 35.172396 
L 250.456636 34.985327 
L 253.991741 34.71621 
L 254.095671 34.48379 
L 255.194801 34.264652 
L 256.701909 34.127691 
L 257.444259 33.768415 
L 257.777391 33.449412 
L 261.934098 33.262343 
L 262.30536 32.972915 
L 266.118299 32.575553 
L 268.092089 32.472602 
L 269.853135 32.150513 
L 269.992741 31.963443 
L 270.355853 31.747391 
L 271.713739 31.528253 
L 273.375227 31.425302 
L 273.534673 31.223464 
L 273.878383 31.120513 
L 277.353198 30.7254 
L 277.721182 30.49645 
L 281.741043 30.26403 
L 287.463595 30.16108 
L 290.749853 29.74506 
L 300.517905 29.318078 
L 301.191766 29.188081 
L 303.051135 28.968942 
L 304.960572 28.968942 
L 306.336762 28.746628 
L 308.638423 28.52749 
L 309.124274 28.308352 
L 311.80689 28.192142 
L 311.869524 28.007326 
L 313.993976 27.774907 
L 319.551927 27.493032 
L 319.681566 27.341154 
L 322.724093 27.108734 
L 322.740225 26.921665 
L 324.930142 26.725002 
L 330.194592 26.588041 
L 330.62763 26.371989 
L 333.659755 25.933712 
L 340.099777 25.647985 
L 345.279309 25.369081 
L 350.005547 25.252872 
L 352.751856 24.917524 
L 354.131764 24.814573 
L 382.711588 24.161177 
L 389.087718 24.024215 
L 389.491931 23.878123 
L 391.142438 23.442933 
L 393.751905 23.220619 
L 397.441789 23.104409 
L 400.723791 22.875459 
L 417.414943 22.522254 
L 427.465708 22.320416 
L 431.459631 21.958811 
L 442.763207 21.726392 
L 443.248213 21.493972 
L 445.849008 21.265022 
L 452.929847 21.12806 
L 488.319641 20.824781 
L 529.763937 20.708571 
L 599.420313 20.708571 
L 599.420313 20.708571 
" style="fill:none;stroke:#1f77b4;stroke-linecap:square;stroke-width:1.5;"/>
   </g>
   <g id="line2d_14">
    <path clip-path="url(#p4f739f1440)" d="M 41.420313 425.681127 
L 41.662816 424.76307 
L 41.67189 419.64326 
L 41.905952 418.584236 
L 41.919641 416.050837 
L 42.143735 415.471981 
L 42.171659 411.261458 
L 42.390326 410.099361 
L 42.426624 405.240862 
L 42.623417 404.282132 
L 42.672557 401.058129 
L 42.877866 399.109419 
L 42.923005 396.816701 
L 43.120051 396.136486 
L 43.181358 393.816225 
L 43.41317 392.743085 
L 43.432936 391.489741 
L 43.585901 391.170165 
L 43.674352 387.967366 
L 43.826522 387.647789 
L 43.924801 385.092761 
L 44.092494 384.873623 
L 44.17525 383.079354 
L 44.335419 382.860215 
L 44.425698 381.007482 
L 44.574226 380.549581 
L 44.676147 377.179642 
L 44.833157 376.754029 
L 44.942404 375.308264 
L 45.073739 374.887288 
L 45.165279 373.651682 
L 45.285248 373.103661 
L 45.886297 366.409173 
L 47.374959 354.12221 
L 47.623069 353.992213 
L 47.752918 352.810041 
L 47.87118 351.40014 
L 47.931982 351.289783 
L 48.002226 350.711266 
L 48.219268 349.551952 
L 48.483604 346.810042 
L 48.574159 345.990562 
L 48.683329 345.880205 
L 48.977324 343.1115 
L 49.15991 342.99529 
L 49.272555 341.626541 
L 49.659239 339.565546 
L 49.76332 339.400603 
L 50.158568 336.142426 
L 50.285273 335.990548 
L 50.408232 334.981157 
L 50.499468 334.278073 
L 50.637277 332.751509 
L 50.67566 331.438374 
L 50.894409 331.219236 
L 50.944164 330.705757 
L 51.074292 330.426854 
L 51.235616 328.630942 
L 51.367269 327.98894 
L 51.410706 326.91719 
L 51.516517 326.765312 
L 51.658845 325.763057 
L 51.882813 324.448547 
L 51.986588 323.571076 
L 52.155883 322.374644 
L 52.274424 321.788907 
L 52.356724 321.572855 
L 52.655212 317.327475 
L 52.867715 317.022686 
L 52.953294 316.228167 
L 52.995075 315.835788 
L 53.191408 314.254177 
L 53.507846 312.823627 
L 53.793356 309.995969 
L 53.942754 309.397517 
L 54.402863 307.889372 
L 54.538292 307.518356 
L 54.706027 306.179486 
L 54.857265 305.994671 
L 55.121205 305.319439 
L 55.277519 304.372479 
L 55.61942 302.22026 
L 55.702749 301.958024 
L 55.868527 301.167159 
L 55.976834 300.23431 
L 56.196794 299.715052 
L 56.245225 299.034161 
L 56.441495 298.649864 
L 56.560794 298.022941 
L 56.687744 297.308758 
L 56.811731 295.859944 
L 58.291811 286.448294 
L 58.397494 285.983455 
L 58.608705 285.067394 
L 58.766197 284.085214 
L 59.010505 281.924009 
L 59.146487 281.704849 
L 59.778754 280.272193 
L 59.780473 280.012198 
L 60.261871 277.797192 
L 60.394809 277.32867 
L 60.454424 277.218313 
L 60.586399 276.410506 
L 60.772914 276.170152 
L 61.548083 272.622066 
L 61.895114 272.122769 
L 61.897377 271.926107 
L 62.10522 271.774229 
L 62.31191 271.070594 
L 62.545639 270.621713 
L 62.64071 270.332285 
L 63.005906 270.202288 
L 63.040687 269.983149 
L 63.254016 269.853152 
L 63.336464 269.217495 
L 63.624465 267.77407 
L 63.839955 267.320614 
L 64.741166 263.371115 
L 64.851481 262.755949 
L 64.962503 262.458522 
L 65.222423 261.703234 
L 65.362519 260.769779 
L 65.5718 259.867645 
L 65.637762 258.492687 
L 65.776489 257.681844 
L 65.955794 256.188583 
L 66.279309 255.099218 
L 66.580134 254.978433 
L 66.58406 254.793618 
L 67.081268 254.271178 
L 67.379443 253.463648 
L 67.522696 252.285854 
L 67.656272 251.289238 
L 67.968112 250.769248 
L 68.107269 249.572981 
L 68.235516 248.773099 
L 68.474858 247.923104 
L 68.592486 247.268541 
L 68.716416 246.342009 
L 69.027143 245.579702 
L 69.133064 245.3174 
L 69.320313 245.08845 
L 69.382175 244.626223 
L 69.597048 244.523272 
L 69.68265 244.035017 
L 69.738936 243.620903 
L 70.130075 241.031008 
L 70.315874 240.359028 
L 70.722826 240.132461 
L 70.775965 239.145074 
L 71.193545 238.550327 
L 71.811384 235.088189 
L 72.255856 234.942097 
L 72.379683 233.217543 
L 72.940171 231.205806 
L 73.037095 230.607326 
L 73.178427 230.153298 
L 73.202052 228.684298 
L 73.370718 228.384685 
L 73.486486 227.820386 
L 73.674648 227.34176 
L 73.925167 227.189882 
L 74.200991 225.213019 
L 74.376017 225.09681 
L 74.479558 224.368905 
L 74.657704 224.139955 
L 74.80067 223.361755 
L 74.944039 222.827804 
L 75.107247 220.754894 
L 75.320978 220.497147 
L 75.687734 219.106997 
L 75.982251 218.777501 
L 76.174638 218.101236 
L 76.389654 217.998285 
L 76.401592 217.779147 
L 76.733598 217.217209 
L 76.872661 216.425954 
L 77.189543 215.636571 
L 77.647544 213.707231 
L 78.120984 213.210027 
L 78.294711 212.445635 
L 78.402278 211.844616 
L 78.620313 211.728406 
L 79.103429 209.730626 
L 79.699996 209.336732 
L 79.776705 208.827886 
L 79.868635 208.492538 
L 80.02253 208.355577 
L 80.163324 207.535446 
L 80.480313 205.798197 
L 80.66648 205.549154 
L 81.066385 203.775219 
L 81.366066 203.109046 
L 81.616286 202.992836 
L 82.663791 199.356407 
L 82.864608 199.240197 
L 83.105765 198.555279 
L 83.380735 198.390336 
L 83.446434 198.171198 
L 83.685636 197.986382 
L 83.69304 197.717265 
L 84.017634 197.127066 
L 84.116882 196.810245 
L 85.111588 193.606214 
L 85.504992 193.202538 
L 85.860581 191.74505 
L 85.949618 191.051076 
L 86.35991 190.044585 
L 86.456233 189.400719 
L 86.751551 188.337832 
L 86.757813 188.217047 
L 87.002 188.106689 
L 87.110208 187.043941 
L 87.478221 186.308417 
L 87.857896 186.06221 
L 88.003348 185.941425 
L 88.041092 185.672308 
L 88.306965 185.485239 
L 88.486399 184.613572 
L 88.755142 184.270795 
L 88.956354 184.074132 
L 89.054459 183.319846 
L 89.355883 182.819604 
L 89.605547 181.937082 
L 90.376227 181.069071 
L 90.478022 180.96612 
L 90.86335 179.896812 
L 90.977126 179.525796 
L 90.987595 179.19591 
L 91.290477 178.91982 
L 91.900135 177.587429 
L 92.345053 176.512779 
L 92.434679 175.855364 
L 92.725041 175.670548 
L 92.853356 174.731185 
L 93.100522 173.389878 
L 93.163456 173.05453 
L 93.523469 172.924532 
L 93.600178 172.692113 
L 93.808959 172.492896 
L 93.869399 172.270582 
L 94.296295 171.849051 
L 95.247462 169.439356 
L 95.649864 168.723184 
L 95.76116 168.360239 
L 95.847158 168.015079 
L 96.025817 167.619199 
L 96.223884 167.197389 
L 96.249878 166.968439 
L 96.389665 166.783623 
L 96.492486 166.265245 
L 96.633973 165.812342 
L 96.971205 164.955593 
L 96.976644 164.756377 
L 97.096587 164.619415 
L 97.195956 164.230508 
L 97.520851 163.838275 
L 97.707649 163.240625 
L 97.989454 163.110628 
L 97.997336 162.888314 
L 98.343802 162.635143 
L 98.465848 162.235454 
L 99.592125 160.771244 
L 99.889008 160.0213 
L 100.025339 159.910942 
L 100.119014 159.222336 
L 100.312133 158.851492 
L 100.362259 158.649654 
L 100.631666 158.450437 
L 100.719964 158.234385 
L 101.117925 157.695914 
L 101.179999 157.257638 
L 101.336506 157.0558 
L 101.850007 156.856583 
L 102.067192 155.800654 
L 102.451563 155.101783 
L 103.339373 153.552941 
L 103.560078 152.821352 
L 103.582192 152.599037 
L 103.811656 152.496086 
L 104.086084 152.100973 
L 104.424251 151.497884 
L 104.585413 150.702822 
L 104.746371 150.349106 
L 104.835078 149.542401 
L 104.952528 149.101095 
L 105.322646 148.101097 
L 105.535214 147.99074 
L 105.563787 147.701312 
L 105.785663 147.590954 
L 106.010391 146.947645 
L 106.0834 146.539251 
L 106.399533 145.980705 
L 106.552717 145.535703 
L 106.921424 145.302755 
L 106.922519 145.150877 
L 107.082057 145.034667 
L 107.71013 143.702256 
L 108.622921 142.554221 
L 108.953617 142.150267 
L 109.154417 141.8332 
L 109.1809 141.543772 
L 109.828366 140.903081 
L 110.078573 139.630177 
L 110.897021 137.875061 
L 111.139947 137.046918 
L 111.322539 136.84508 
L 111.411662 136.1279 
L 111.796435 136.017543 
L 111.868723 135.424212 
L 112.32501 135.191793 
L 112.846263 134.134967 
L 113.048679 133.822772 
L 113.205458 133.238403 
L 113.675745 131.634438 
L 114.055053 130.970297 
L 114.170645 130.390466 
L 114.297979 129.986512 
L 114.881088 129.239428 
L 114.930747 129.010477 
L 115.320984 128.894267 
L 115.525853 128.131371 
L 115.755953 127.852468 
L 115.820313 127.386688 
L 116.319641 127.039336 
L 117.148884 125.524608 
L 117.264973 125.093827 
L 117.489128 124.75699 
L 118.151383 123.127726 
L 118.175771 122.825558 
L 118.566621 122.544406 
L 118.719014 122.05615 
L 119.059451 121.945793 
L 119.078827 121.628726 
L 119.354638 121.443911 
L 119.428176 120.968345 
L 119.565279 120.665066 
L 119.823158 119.612805 
L 120.514522 118.305032 
L 120.753356 117.834512 
L 120.821447 117.122531 
L 121.064796 116.937716 
L 121.099895 116.718578 
L 121.383705 116.481583 
L 121.828671 115.026844 
L 121.865922 114.830182 
L 122.311588 114.713972 
L 122.332779 114.56788 
L 122.800373 114.116322 
L 123.072832 113.495987 
L 123.52915 113.139887 
L 123.564912 112.707783 
L 124.113924 112.365006 
L 124.267474 112.062839 
L 124.274858 111.793721 
L 124.500852 111.255006 
L 124.511142 111.05579 
L 124.635095 110.826839 
L 124.799623 109.87724 
L 124.944208 109.774289 
L 125.057896 109.340032 
L 125.195786 109.050011 
L 125.397027 108.10237 
L 125.698942 107.889061 
L 125.811447 107.175202 
L 126.164438 106.952887 
L 126.296453 106.720468 
L 126.407258 105.979775 
L 126.840752 105.431248 
L 127.173033 105.21211 
L 127.303791 104.567891 
L 127.532951 104.293968 
L 128.258907 104.06102 
L 128.275301 103.924058 
L 128.717878 103.376105 
L 129.126967 101.89834 
L 129.327853 101.787983 
L 129.729878 101.060964 
L 130.60067 100.672286 
L 131.042194 100.245304 
L 131.059842 100.026166 
L 131.749294 99.416108 
L 131.798836 99.299898 
L 131.987053 99.162937 
L 131.992114 98.940622 
L 132.263201 98.753553 
L 132.601538 97.563013 
L 132.842634 97.003862 
L 132.940206 96.62882 
L 133.126399 96.399869 
L 133.206213 95.955241 
L 133.5174 95.682578 
L 134.01526 95.466526 
L 134.056558 95.234106 
L 134.213554 95.104109 
L 134.217875 94.884971 
L 134.461013 94.510832 
L 134.500693 94.221404 
L 135.682019 94.034335 
L 135.918353 92.769949 
L 136.516796 91.559288 
L 136.841318 91.448931 
L 136.890056 91.229792 
L 137.417699 90.505174 
L 137.457382 90.353296 
L 137.735965 89.908294 
L 138.927649 89.648299 
L 139.095357 89.318803 
L 139.118919 89.102752 
L 139.562237 88.780662 
L 139.593663 88.274016 
L 140.066741 88.153231 
L 140.105902 87.954015 
L 140.334076 87.737963 
L 140.416311 87.408749 
L 140.533939 87.189611 
L 141.617704 86.734093 
L 141.704908 86.511779 
L 143.029919 86.09651 
L 143.533064 85.761162 
L 143.541153 85.576347 
L 143.752492 85.297443 
L 144.112109 85.160482 
L 144.634185 84.302188 
L 145.149525 84.08305 
L 145.217146 83.918107 
L 145.512056 83.505392 
L 145.844259 83.012331 
L 146.895922 82.447143 
L 147.415946 81.84706 
L 148.276688 81.529012 
L 148.292334 81.377134 
L 148.503863 81.15482 
L 148.606753 80.358208 
L 149.036333 80.002108 
L 149.459122 78.851243 
L 150.024339 78.605036 
L 150.545811 77.978837 
L 151.24732 77.826959 
L 151.465589 77.28379 
L 152.772862 77.030619 
L 153.020313 76.335041 
L 153.372522 76.102093 
L 153.415007 75.956 
L 153.7008 75.739949 
L 154.186863 75.523897 
L 154.33154 75.102366 
L 155.352398 74.383963 
L 155.494814 73.887601 
L 155.715267 73.568024 
L 156.187998 73.368807 
L 157.157294 73.02986 
L 157.378122 72.700364 
L 157.969315 72.563403 
L 158.188333 71.918269 
L 158.868347 71.719052 
L 159.261923 70.842789 
L 160.416706 70.739838 
L 160.939686 70.335884 
L 160.974419 70.103465 
L 161.555591 69.847015 
L 162.239443 69.481103 
L 163.174517 68.691404 
L 163.233705 68.166943 
L 163.854792 67.715385 
L 163.908117 67.362372 
L 164.897918 67.22541 
L 165.392818 66.768872 
L 166.39428 66.555564 
L 166.877519 65.957233 
L 167.209312 65.854282 
L 167.253499 65.702404 
L 167.956551 65.366505 
L 167.966741 65.24572 
L 168.227452 65.026581 
L 168.893398 64.620374 
L 169.204728 64.351257 
L 169.927931 63.91298 
L 169.983901 63.696928 
L 170.895637 63.427811 
L 170.899633 63.208672 
L 171.403257 62.911246 
L 172.614576 61.887104 
L 172.900278 61.671052 
L 174.32399 61.349275 
L 174.706775 61.150059 
L 174.797105 60.917639 
L 175.151749 60.787642 
L 175.446186 60.026613 
L 177.986755 58.874076 
L 178.093016 58.554499 
L 178.7819 58.305456 
L 180.617183 57.205678 
L 181.297679 57.102727 
L 181.591866 56.499638 
L 182.741461 56.140362 
L 183.478828 55.941146 
L 183.774688 55.722007 
L 185.537908 55.368994 
L 186.214664 54.871807 
L 186.274129 54.55223 
L 189.104798 54.106503 
L 189.148029 53.421695 
L 189.570531 53.222479 
L 191.360799 52.861782 
L 191.385891 52.709904 
L 192.11743 52.388127 
L 192.277082 52.168988 
L 197.112277 50.263074 
L 198.14553 50.034123 
L 200.35067 49.913339 
L 200.669185 49.707437 
L 200.779264 49.309003 
L 202.663745 49.124188 
L 203.694583 48.431251 
L 204.373903 47.582669 
L 205.152137 47.363531 
L 206.203901 47.26058 
L 206.322529 47.028161 
L 207.076563 46.688237 
L 207.338467 46.469099 
L 209.767722 45.913783 
L 209.933838 45.776821 
L 210.769657 45.348654 
L 212.372567 45.015492 
L 213.302042 44.644476 
L 215.332779 44.361422 
L 215.43642 44.245213 
L 216.614991 44.108251 
L 217.001056 43.584488 
L 217.78817 43.463704 
L 217.852242 43.097792 
L 218.205189 42.865372 
L 221.357731 42.433736 
L 221.550159 42.227834 
L 222.053315 41.978791 
L 222.304893 41.573673 
L 223.425682 41.2608 
L 223.473363 41.114708 
L 225.750654 40.747901 
L 226.20144 40.551239 
L 229.600655 40.448288 
L 230.506775 40.249071 
L 230.750444 40.049854 
L 231.388097 39.830716 
L 232.946698 39.508939 
L 233.122747 39.405988 
L 233.187125 39.206772 
L 233.374325 39.103821 
L 233.574427 38.665544 
L 235.314212 38.091236 
L 236.890286 37.868922 
L 236.896417 37.66302 
L 237.120443 37.4306 
L 237.618746 37.208286 
L 239.302972 36.975867 
L 240.376342 36.318452 
L 242.934289 36.094716 
L 244.15219 35.895499 
L 244.193527 35.774714 
L 245.035214 35.664357 
L 245.12305 35.431938 
L 249.223739 35.074158 
L 250.481629 34.647176 
L 250.73123 34.447959 
L 252.258316 34.263144 
L 252.582116 33.868009 
L 252.997409 33.44761 
L 253.800923 33.152437 
L 253.908705 33.031652 
L 255.04896 32.88556 
L 255.340663 32.698491 
L 256.016345 32.59554 
L 259.098946 32.410725 
L 259.503282 32.211508 
L 260.796327 31.962465 
L 263.211344 31.524188 
L 263.795801 31.291769 
L 263.940121 31.07263 
L 268.343667 30.634332 
L 268.846823 30.379503 
L 271.362603 29.927923 
L 276.354541 29.708762 
L 280.56317 29.115198 
L 281.174145 28.909296 
L 282.005485 28.757418 
L 284.947815 28.508375 
L 285.199393 28.405424 
L 286.043527 28.132761 
L 288.415934 27.645778 
L 289.885449 27.4939 
L 295.262513 27.287999 
L 298.218721 26.922746 
L 300.133957 26.812388 
L 300.720401 26.66051 
L 300.740848 26.539725 
L 304.97567 26.31599 
L 305.206592 26.151047 
L 307.086679 26.048096 
L 317.652955 25.82436 
L 317.680134 25.703575 
L 318.659267 25.497673 
L 321.044474 25.381464 
L 332.496056 25.175562 
L 337.608705 24.831041 
L 342.559176 24.460003 
L 345.82969 24.254101 
L 349.004376 24.069285 
L 353.880186 23.966334 
L 373.000114 23.863384 
L 374.444185 23.33878 
L 376.019953 23.228422 
L 396.900024 22.755643 
L 397.38583 22.609551 
L 460.043655 21.984894 
L 497.286384 21.864109 
L 504.922272 21.644971 
L 547.092089 21.390142 
L 568.487969 21.188304 
L 569.822052 20.959354 
L 578.330939 20.829356 
L 599.420313 20.708571 
L 599.420313 20.708571 
" style="fill:none;stroke:#ff7f0e;stroke-linecap:square;stroke-width:1.5;"/>
   </g>
   <g id="line2d_15">
    <path clip-path="url(#p4f739f1440)" d="M 41.420313 402.020313 
L 41.661453 402.020313 
L 41.67189 388.089145 
L 41.902594 386.521411 
L 41.923468 374.498195 
L 42.144361 374.219292 
L 42.175046 367.256977 
L 42.384876 366.967549 
L 42.426624 360.109453 
L 42.626017 359.241169 
L 42.678202 353.879693 
L 42.864038 353.560117 
L 42.923005 347.374374 
L 43.108299 346.795518 
L 43.173454 343.727157 
L 43.361182 343.269256 
L 43.423903 340.840937 
L 43.59058 340.551509 
L 43.684514 336.021155 
L 43.849568 334.896027 
L 43.936092 333.14497 
L 44.077455 332.606735 
L 44.18767 330.416239 
L 44.316506 329.817759 
L 44.352011 327.702233 
L 44.439248 326.296863 
L 44.610286 325.930082 
L 44.915615 323.296011 
L 45.06261 322.794794 
L 45.165279 321.337828 
L 45.307121 320.467212 
L 45.992111 313.158576 
L 46.153348 311.141228 
L 46.270378 310.320114 
L 46.402455 309.126158 
L 46.878738 305.072796 
L 46.955028 304.969845 
L 47.084037 304.076981 
L 47.180636 303.966624 
L 47.330286 302.317594 
L 47.431084 301.976094 
L 47.834106 298.389981 
L 47.936748 297.878658 
L 48.101465 296.97124 
L 48.161252 296.85503 
L 48.315282 294.711393 
L 48.465154 294.042681 
L 48.596366 293.706503 
L 48.716074 293.603552 
L 49.234755 287.21775 
L 49.384845 286.792755 
L 49.470808 286.372356 
L 49.722386 284.766112 
L 49.80758 284.286859 
L 49.908903 283.808232 
L 50.008703 283.10878 
L 50.186022 282.307016 
L 50.300949 281.508205 
L 50.432098 279.923529 
L 50.547633 279.556722 
L 50.651484 278.621936 
L 50.728698 277.893595 
L 50.848503 277.763598 
L 51.40689 275.467561 
L 51.516517 275.047789 
L 51.762766 274.115083 
L 51.866111 273.765948 
L 52.13703 272.322201 
L 52.255264 272.067372 
L 52.655212 270.009537 
L 52.879241 269.758755 
L 53.256676 266.965128 
L 54.073936 263.117634 
L 54.22291 261.325994 
L 54.373884 261.102258 
L 54.521182 260.721429 
L 54.652527 260.386081 
L 54.781218 259.944629 
L 54.851385 258.547844 
L 54.987952 258.291394 
L 55.121205 256.818865 
L 55.234636 256.526681 
L 55.339787 255.018353 
L 55.430702 254.749236 
L 55.59019 253.687867 
L 55.695896 253.350942 
L 55.772419 252.854705 
L 55.976834 252.625755 
L 55.995846 252.187478 
L 56.196794 251.925243 
L 56.447242 250.622518 
L 56.514769 250.04728 
L 56.697691 249.785045 
L 56.76657 248.810521 
L 57.009669 248.563202 
L 57.124798 247.627758 
L 57.198589 247.5174 
L 57.300348 246.389681 
L 57.398836 246.273471 
L 57.502409 245.41684 
L 57.6485 245.30063 
L 57.949935 244.349805 
L 58.033272 244.062038 
L 58.160313 243.551935 
L 58.27758 242.895665 
L 58.514404 241.941009 
L 58.521889 241.756194 
L 58.647158 241.639984 
L 58.797475 240.428625 
L 58.903341 240.206311 
L 58.910952 239.329758 
L 59.153878 239.007669 
L 59.333241 238.65791 
L 59.645816 238.43875 
L 59.921639 237.836693 
L 60.168323 236.123794 
L 60.36026 235.66906 
L 60.60308 234.484839 
L 60.61979 234.052736 
L 60.8459 233.608107 
L 61.043396 232.660195 
L 61.155061 232.514103 
L 61.166053 232.118223 
L 62.28466 230.332691 
L 62.453572 229.13673 
L 62.527269 228.777783 
L 62.564041 228.339416 
L 62.757796 228.209419 
L 62.863107 227.30064 
L 62.958912 226.540628 
L 63.090215 226.38875 
L 63.163745 226.002097 
L 63.605274 224.620357 
L 63.740313 224.099222 
L 63.998347 223.969225 
L 64.255315 222.73687 
L 64.639104 221.673789 
L 64.813958 221.048771 
L 65.068644 220.743982 
L 65.388098 219.866624 
L 65.487009 219.042837 
L 65.842063 218.103576 
L 66.088748 217.598536 
L 66.23134 217.468538 
L 66.257823 217.17911 
L 66.386755 217.062901 
L 66.5377 215.698101 
L 67.159216 214.304598 
L 67.316985 213.967904 
L 67.549853 213.329277 
L 67.635078 213.213068 
L 67.768944 212.519299 
L 67.884742 212.403089 
L 67.899198 212.183951 
L 68.08758 211.960215 
L 68.396793 211.15873 
L 68.633735 211.042521 
L 68.711142 210.288453 
L 68.858955 210.066138 
L 68.8709 209.847 
L 69.148545 209.462919 
L 69.587414 208.592227 
L 69.793194 207.856945 
L 70.048139 206.791403 
L 70.236067 206.270709 
L 70.619426 205.564874 
L 70.814955 205.292211 
L 70.97018 204.555965 
L 71.31317 203.755545 
L 71.762488 203.270929 
L 71.892134 202.855128 
L 72.378702 202.372138 
L 72.501252 201.810516 
L 72.554396 201.38552 
L 72.726417 201.042743 
L 72.846477 200.905782 
L 72.936074 200.52175 
L 73.127695 200.070192 
L 73.430743 199.489143 
L 73.477763 198.920885 
L 73.876688 198.585515 
L 74.125452 197.685697 
L 74.376017 197.569487 
L 74.485191 196.645614 
L 74.663914 196.493736 
L 74.802845 195.862415 
L 74.910162 195.710537 
L 75.131764 195.607586 
L 75.180036 194.948527 
L 75.886498 194.127671 
L 75.915741 193.908532 
L 76.046205 193.787747 
L 76.264854 193.140059 
L 76.651971 193.010062 
L 76.942859 192.658068 
L 78.797149 189.217604 
L 78.928824 188.693676 
L 79.238086 188.227219 
L 79.43254 187.749099 
L 79.699996 187.432278 
L 80.30533 186.198222 
L 80.820136 185.76744 
L 81.260104 184.860042 
L 81.663057 184.474385 
L 81.967025 183.60636 
L 82.16086 183.141521 
L 82.365279 182.605346 
L 82.614943 182.489136 
L 83.245268 181.059898 
L 84.305902 179.810534 
L 84.60466 179.176729 
L 85.332486 178.314438 
L 85.408988 177.803446 
L 85.610917 177.460669 
L 85.632764 177.022392 
L 85.864951 176.486694 
L 86.274834 175.296871 
L 86.328272 174.937924 
L 86.597555 174.598976 
L 86.703683 174.242877 
L 86.788139 174.013926 
L 87.758573 172.934087 
L 87.819094 172.121672 
L 88.062763 171.934603 
L 88.204592 171.403124 
L 88.724811 170.895271 
L 88.790796 170.676132 
L 89.178184 170.393079 
L 89.269917 170.076258 
L 89.756937 169.855543 
L 89.855212 169.552264 
L 90.104876 169.436054 
L 90.177594 168.994748 
L 90.423843 168.84287 
L 90.85387 168.72666 
L 90.854193 168.437232 
L 90.987595 168.053151 
L 91.723743 167.457427 
L 91.760528 167.131018 
L 91.852527 167.014808 
L 91.86099 166.782389 
L 92.059898 166.492961 
L 92.490646 166.2738 
L 92.511874 166.053085 
L 92.886332 165.901207 
L 94.117576 164.687472 
L 95.597494 164.434301 
L 95.611887 164.29734 
L 96.354237 164.160378 
L 96.492486 163.931428 
L 97.019953 163.70486 
L 97.364997 163.415432 
L 97.438565 162.871978 
L 98.190747 161.841052 
L 98.319218 161.431668 
L 98.593467 161.099407 
L 98.682321 160.90019 
L 99.051822 160.713121 
L 99.052983 160.423693 
L 99.283252 160.320742 
L 99.403791 159.802363 
L 99.535052 159.650485 
L 99.592125 159.255372 
L 99.92621 158.82629 
L 100.068236 158.328249 
L 100.341118 158.212039 
L 100.387998 157.86673 
L 100.761232 157.457347 
L 101.090111 156.855737 
L 101.339776 156.739527 
L 101.422925 156.520389 
L 101.803624 156.287969 
L 102.104663 155.792741 
L 102.302188 155.68979 
L 102.534598 155.201535 
L 102.554315 154.797859 
L 103.056922 154.557947 
L 103.475034 154.06297 
L 103.582829 153.763356 
L 103.747489 153.382361 
L 104.015686 152.899371 
L 104.063234 152.693469 
L 104.335749 152.577259 
L 104.338031 152.138983 
L 105.014991 151.773071 
L 105.081505 151.264504 
L 106.0834 150.577714 
L 106.446698 149.971506 
L 106.653689 149.739087 
L 107.082057 149.622877 
L 107.138696 149.390458 
L 108.5406 149.177149 
L 108.622921 148.831989 
L 108.974193 148.472714 
L 110.738615 148.180529 
L 110.776245 147.94811 
L 111.354999 147.680022 
L 111.387409 147.550025 
L 111.809662 147.129048 
L 111.838067 146.906734 
L 112.540347 146.286519 
L 112.628501 146.070467 
L 113.37162 145.770854 
L 113.717704 145.431546 
L 113.822997 145.315336 
L 114.57199 145.199126 
L 114.680706 145.012057 
L 115.820313 144.633545 
L 116.165671 144.225151 
L 116.97016 143.821197 
L 117.068635 142.837097 
L 117.556758 142.178894 
L 117.896205 142.058109 
L 117.898706 141.856271 
L 118.151602 141.753321 
L 118.225062 141.369239 
L 118.879843 141.146925 
L 119.565279 140.264579 
L 120.064608 139.858941 
L 120.604348 139.355199 
L 120.712457 139.203321 
L 121.31293 138.902296 
L 121.563939 138.791938 
L 121.617715 138.522821 
L 122.064837 138.412464 
L 122.250947 138.225394 
L 122.311588 137.830281 
L 122.561252 137.714072 
L 122.583949 137.57711 
L 123.174946 137.16293 
L 123.183162 137.059979 
L 123.649353 136.770551 
L 123.744189 136.568714 
L 123.937896 135.814966 
L 124.015001 135.595828 
L 125.057896 135.26048 
L 125.3059 134.92168 
L 125.32644 134.689261 
L 125.637435 134.537383 
L 126.060762 133.75931 
L 126.402369 133.572241 
L 126.460487 133.373024 
L 127.210382 132.628542 
L 127.266466 132.339114 
L 128.111779 132.005952 
L 128.275301 131.868991 
L 128.306126 131.590087 
L 129.995679 130.422797 
L 130.08814 130.203658 
L 130.300849 130.087449 
L 130.419009 129.855029 
L 130.730502 129.752078 
L 130.739574 129.587135 
L 131.299507 128.906627 
L 131.30116 128.754749 
L 131.485236 128.486855 
L 131.538165 128.285017 
L 133.047158 127.601106 
L 133.329048 127.149549 
L 133.796151 127.033339 
L 134.29548 126.598127 
L 135.193617 126.246114 
L 135.476208 125.817947 
L 136.445574 125.379581 
L 136.903026 124.862626 
L 137.041789 124.5472 
L 139.181125 123.541854 
L 139.618566 122.974708 
L 139.92009 122.84471 
L 141.054448 122.657641 
L 141.080575 122.458425 
L 141.324243 122.259208 
L 141.367888 122.062545 
L 142.055247 121.580275 
L 142.963195 121.361137 
L 143.07431 121.164474 
L 143.367356 121.012596 
L 144.112109 120.875635 
L 145.104386 119.244756 
L 145.177624 118.841081 
L 145.635376 118.621942 
L 147.278031 118.276782 
L 147.987952 117.549946 
L 148.784831 117.201405 
L 149.634033 117.036463 
L 150.137475 116.28388 
L 150.615563 115.896623 
L 151.863054 115.65671 
L 152.271319 115.318186 
L 152.777704 115.089236 
L 154.010113 114.787332 
L 154.623185 114.676974 
L 154.648429 114.530882 
L 154.88199 114.427931 
L 154.969657 114.228714 
L 155.768597 114.063772 
L 156.3241 113.463805 
L 156.544015 113.184901 
L 157.361957 113.038809 
L 157.514272 112.785638 
L 157.781653 112.277072 
L 158.024579 112.057933 
L 158.713188 111.756029 
L 158.762594 111.639819 
L 159.247991 111.519034 
L 159.276897 111.286615 
L 159.5194 111.054196 
L 159.91355 110.951245 
L 160.034891 110.612445 
L 161.259239 110.263816 
L 161.674596 110.023904 
L 163.520969 109.836835 
L 163.806014 109.304128 
L 164.282698 108.402769 
L 164.728348 108.082767 
L 164.96005 107.883551 
L 166.143831 107.773193 
L 166.197994 107.49429 
L 167.585306 106.850977 
L 167.745997 106.699099 
L 168.96317 106.288886 
L 171.238732 105.209349 
L 171.403257 104.876677 
L 171.782758 104.67746 
L 171.994809 104.328831 
L 172.494138 104.066529 
L 172.556418 103.87946 
L 174.491453 103.311692 
L 174.844529 102.930698 
L 174.886575 102.651794 
L 175.87221 102.280756 
L 175.89608 101.985816 
L 176.059685 101.769764 
L 178.909172 100.491984 
L 179.705156 99.711634 
L 180.37373 99.492495 
L 180.669864 99.1803 
L 180.858285 99.050303 
L 181.288386 98.180109 
L 182.73038 97.640669 
L 183.058725 96.949199 
L 183.575157 96.167323 
L 183.966164 95.968106 
L 184.003867 95.822014 
L 186.231691 94.749108 
L 186.72501 94.495936 
L 187.321611 94.226819 
L 188.722326 94.110609 
L 189.045924 92.990571 
L 190.534586 92.528312 
L 190.819529 92.309173 
L 192.217628 91.973803 
L 192.271357 91.843806 
L 193.46595 91.528379 
L 193.49171 91.030338 
L 194.379735 90.927387 
L 194.687561 90.49922 
L 195.029811 90.334277 
L 195.463266 89.762433 
L 196.217167 89.346632 
L 196.895515 88.456247 
L 197.078137 88.164062 
L 197.438463 87.874634 
L 198.039111 87.65232 
L 198.175539 87.436268 
L 199.019606 87.28439 
L 199.203077 86.954894 
L 199.630011 86.642022 
L 200.20689 85.775015 
L 200.918993 85.203864 
L 200.955217 85.073867 
L 201.265328 84.854728 
L 201.296717 84.5653 
L 202.505193 84.419208 
L 202.510335 84.282247 
L 202.722881 83.803114 
L 202.757785 83.666152 
L 204.201521 83.333891 
L 204.231984 83.187799 
L 205.213849 83.077441 
L 205.352516 82.622708 
L 205.423791 82.393757 
L 205.71209 81.958237 
L 206.5004 81.771168 
L 207.050039 81.306329 
L 207.053558 80.976443 
L 207.601972 80.315708 
L 208.196151 80.199498 
L 208.445816 79.898473 
L 208.820313 79.669522 
L 209.998149 79.50458 
L 210.676188 78.649608 
L 212.160889 78.28608 
L 212.271358 78.070028 
L 213.168364 77.478821 
L 213.89304 77.34186 
L 213.897457 77.122721 
L 217.933064 76.890302 
L 219.336942 76.360962 
L 219.650078 76.138647 
L 221.749581 75.703457 
L 223.048694 75.118407 
L 223.535195 74.896093 
L 223.614479 74.676954 
L 223.781362 74.546957 
L 225.368238 74.395079 
L 225.477754 74.172765 
L 225.720574 73.950451 
L 225.792304 73.494264 
L 226.001102 73.167855 
L 226.421655 73.051645 
L 226.524908 72.864576 
L 227.015965 72.635625 
L 230.97656 72.208201 
L 232.763221 71.987486 
L 234.161252 71.725184 
L 234.678849 71.588223 
L 234.912432 71.11398 
L 235.890105 70.570788 
L 237.2713 70.244379 
L 238.665679 69.282807 
L 238.673554 68.993379 
L 243.587053 67.165053 
L 244.126404 66.745628 
L 244.263151 66.526489 
L 244.896823 66.273318 
L 244.972082 66.076656 
L 245.314399 65.808568 
L 245.323623 65.592516 
L 246.299395 65.324428 
L 248.217427 65.118526 
L 248.294548 64.91931 
L 250.639104 64.68689 
L 250.670313 64.407987 
L 251.073492 64.27799 
L 251.10201 64.131898 
L 251.991097 63.517204 
L 252.088748 63.371112 
L 255.210614 63.17445 
L 255.923578 62.756095 
L 257.624057 62.536956 
L 257.847753 62.372013 
L 262.872661 61.757877 
L 264.13191 61.145812 
L 264.869977 61.029602 
L 265.206652 60.844787 
L 267.837164 60.291805 
L 268.12323 60.145713 
L 269.380735 59.850773 
L 269.736921 59.57187 
L 272.609574 58.589922 
L 274.60689 58.357503 
L 274.633117 58.151601 
L 276.251447 57.986658 
L 276.944538 57.78482 
L 276.977406 57.505917 
L 278.345997 57.273497 
L 278.351856 57.157288 
L 278.804249 57.00541 
L 279.113819 56.736292 
L 279.686803 56.355298 
L 280.112219 56.132984 
L 281.529403 55.863866 
L 281.673686 55.407733 
L 282.683613 55.117713 
L 284.844767 54.918497 
L 285.14445 54.772404 
L 285.702549 54.669453 
L 288.218329 54.456145 
L 289.087427 54.339935 
L 289.146703 54.188057 
L 291.267356 54.05806 
L 292.459262 53.496852 
L 292.605336 53.277714 
L 295.329037 52.680108 
L 295.874145 52.235106 
L 297.62739 51.892351 
L 298.100313 51.547191 
L 300.294073 51.32803 
L 302.97508 50.670905 
L 303.284499 50.392002 
L 304.067292 50.073954 
L 306.402082 49.74474 
L 306.695019 49.296651 
L 308.576549 48.820154 
L 312.118239 47.884795 
L 316.162682 47.545487 
L 316.300849 47.23006 
L 316.999997 47.045245 
L 318.942819 46.187002 
L 320.168735 45.973694 
L 320.662921 45.614746 
L 322.292796 45.498537 
L 322.740225 45.311467 
L 323.072862 45.022039 
L 325.74049 44.885078 
L 326.999352 44.685861 
L 329.300949 44.539769 
L 329.318084 44.343106 
L 330.194592 44.206145 
L 330.781386 43.890719 
L 330.807325 43.621601 
L 331.521108 43.475509 
L 331.95744 43.12946 
L 336.574862 42.586291 
L 337.274289 42.353871 
L 337.351711 42.188929 
L 339.229301 41.747623 
L 342.016286 41.501416 
L 342.05602 41.398465 
L 343.133852 40.992257 
L 345.045202 40.840379 
L 346.486056 40.561476 
L 346.492802 40.362259 
L 353.336725 39.92396 
L 353.900313 39.69501 
L 356.996151 39.5788 
L 357.416811 39.204661 
L 357.745145 39.088452 
L 359.342086 38.856032 
L 359.65279 38.636894 
L 361.596194 38.417756 
L 362.810822 37.976303 
L 362.92184 37.774465 
L 363.467445 37.644468 
L 366.502898 37.423753 
L 367.426407 36.972195 
L 371.799067 36.62306 
L 374.279443 36.192271 
L 375.769505 36.081914 
L 376.80232 35.849494 
L 381.416765 35.712533 
L 387.336433 35.070447 
L 387.472464 34.838027 
L 392.565032 34.132468 
L 401.151183 33.851316 
L 402.164762 33.322603 
L 403.687275 32.988979 
L 405.077305 32.824036 
L 405.079868 32.604898 
L 408.237901 32.050412 
L 416.05978 31.634547 
L 416.740295 31.19627 
L 417.542868 30.963851 
L 417.711997 30.744712 
L 418.345806 30.497394 
L 418.941046 30.295556 
L 423.104334 30.074841 
L 423.299285 29.855702 
L 426.586228 29.36867 
L 427.089384 29.26572 
L 429.860946 29.100777 
L 430.188803 28.913707 
L 435.259363 28.748765 
L 439.332372 28.310488 
L 442.631051 27.858908 
L 445.439344 27.301101 
L 445.489278 27.099263 
L 448.650115 26.721012 
L 448.710491 26.600227 
L 449.292319 26.381089 
L 449.313598 26.251092 
L 451.586546 25.981974 
L 459.980938 25.749555 
L 461.095701 25.33369 
L 464.5885 24.990913 
L 466.297108 24.771775 
L 469.102909 24.565873 
L 470.593467 24.312702 
L 470.819701 24.110864 
L 486.653762 23.572723 
L 486.718338 23.462366 
L 486.964947 23.359415 
L 488.81897 23.243205 
L 498.034379 22.911304 
L 499.334984 22.692165 
L 513.129059 22.402145 
L 515.147942 22.07031 
L 517.53038 21.9541 
L 518.522496 21.754884 
L 524.450069 21.548982 
L 527.017628 21.432772 
L 535.016345 21.329821 
L 536.269119 21.183729 
L 557.985897 20.937522 
L 563.271617 20.708571 
L 599.420313 20.708571 
L 599.420313 20.708571 
" style="fill:none;stroke:#2ca02c;stroke-linecap:square;stroke-width:1.5;"/>
   </g>
   <g id="line2d_16">
    <path clip-path="url(#p4f739f1440)" d="M 41.420313 303.304877 
L 41.660933 300.10911 
L 41.67189 254.829737 
L 41.901554 253.871007 
L 41.923468 221.019914 
L 42.143735 220.441058 
L 42.171659 207.468215 
L 42.384876 207.178787 
L 42.426624 199.583555 
L 42.623417 199.263978 
L 42.635469 196.833734 
L 42.678202 193.423445 
L 42.868409 192.565686 
L 42.877866 188.971155 
L 42.92978 184.494796 
L 43.118573 183.708039 
L 43.181358 179.891514 
L 43.351108 179.333707 
L 43.432936 174.846039 
L 43.59058 174.556611 
L 43.684514 168.639905 
L 43.846399 168.141837 
L 43.924801 165.968803 
L 44.093657 164.655516 
L 44.17525 163.263324 
L 44.343054 161.06568 
L 44.439248 158.531529 
L 44.560572 157.972984 
L 45.300365 147.624259 
L 45.414943 144.40826 
L 45.677943 141.33527 
L 45.785371 141.102851 
L 45.928391 138.799354 
L 46.027874 138.566935 
L 46.107315 136.883021 
L 46.270378 136.540245 
L 46.369315 134.623932 
L 46.651563 133.85964 
L 46.781011 132.18932 
L 47.162594 130.851287 
L 47.242921 130.393386 
L 47.268347 128.899727 
L 47.431084 128.67316 
L 47.554877 126.745114 
L 47.728139 126.516164 
L 47.736377 125.636435 
L 47.970747 124.92892 
L 48.11929 124.460123 
L 48.222228 123.892355 
L 48.596366 121.694013 
L 48.716074 121.591062 
L 48.78179 121.027686 
L 48.893527 120.776904 
L 49.091266 119.47082 
L 50.225542 115.763473 
L 50.408232 115.531053 
L 50.47712 115.106013 
L 50.67566 114.675225 
L 50.777771 113.954499 
L 51.135491 113.066464 
L 51.231854 112.736946 
L 51.344723 112.606949 
L 51.432566 111.782297 
L 51.592834 111.6523 
L 51.813217 110.187825 
L 51.852486 109.599927 
L 52.009015 108.995002 
L 52.155883 108.309536 
L 52.271652 107.833039 
L 52.594888 106.404493 
L 52.69051 105.845664 
L 52.902799 104.434066 
L 53.24026 103.911171 
L 53.441856 103.061422 
L 53.87567 101.253645 
L 54.040268 100.964806 
L 54.153198 100.20487 
L 54.42559 99.571406 
L 55.401521 97.466646 
L 55.509995 96.868033 
L 55.75292 96.137152 
L 55.810708 95.870194 
L 56.143268 95.486112 
L 56.263414 94.735533 
L 56.615848 93.881858 
L 57.251827 92.516499 
L 57.269726 92.11138 
L 57.576752 91.705743 
L 57.898165 91.099185 
L 58.02446 90.332093 
L 58.395541 90.099674 
L 58.527616 89.249593 
L 58.81252 88.640553 
L 59.28235 87.341266 
L 59.785506 86.998403 
L 60.101182 86.353651 
L 60.601563 85.943438 
L 60.721421 85.517049 
L 61.216321 85.126916 
L 61.44482 84.507743 
L 61.897377 84.078661 
L 62.552864 83.334663 
L 62.659067 82.836621 
L 62.769878 82.607671 
L 62.919014 81.596521 
L 63.390782 80.556874 
L 64.565488 78.737837 
L 64.639104 78.223194 
L 64.984091 77.788004 
L 65.238899 77.541797 
L 65.469942 76.904303 
L 65.887427 76.468517 
L 66.074956 76.365566 
L 66.155645 76.133147 
L 66.47945 75.900198 
L 66.63642 75.395081 
L 66.817249 75.056134 
L 67.135749 74.617835 
L 67.402036 74.395521 
L 67.486056 73.82719 
L 67.836002 73.724239 
L 68.144924 73.31816 
L 68.8709 72.866073 
L 68.887275 72.729112 
L 69.077704 72.500162 
L 69.952994 72.224072 
L 69.991866 72.037003 
L 70.631051 71.698479 
L 70.866876 71.339203 
L 70.945435 71.009989 
L 71.490717 70.269716 
L 72.271858 69.688161 
L 72.366164 69.272892 
L 72.583901 68.943007 
L 73.588827 68.566133 
L 73.873874 68.240868 
L 74.37703 68.137917 
L 74.418979 68.00792 
L 74.631691 67.82085 
L 74.686631 67.598536 
L 74.95864 67.382484 
L 75.462753 67.051576 
L 75.672816 66.433938 
L 77.300579 65.931064 
L 77.436228 65.63888 
L 78.783113 65.252594 
L 79.316699 64.54744 
L 79.752486 63.476164 
L 79.77508 63.339203 
L 80.163324 63.125895 
L 80.265321 62.523844 
L 80.894548 62.159685 
L 81.136493 62.013593 
L 82.002131 61.876631 
L 82.153822 61.565596 
L 82.854728 61.435599 
L 82.88837 61.203179 
L 83.203508 60.784824 
L 83.282625 60.632946 
L 83.863266 60.400527 
L 83.911341 60.213458 
L 84.399425 59.991143 
L 85.335831 59.861146 
L 85.555906 59.073875 
L 85.856344 58.851561 
L 86.060313 58.348688 
L 86.237612 58.19681 
L 86.576382 58.066812 
L 86.742583 57.867596 
L 87.002 57.757238 
L 87.816933 57.627241 
L 87.857896 57.291893 
L 88.357225 57.038722 
L 88.435834 56.90176 
L 89.106219 56.785551 
L 89.193455 56.41617 
L 89.889103 56.029516 
L 90.005424 55.810378 
L 91.818757 54.969422 
L 91.86099 54.737002 
L 92.395035 54.49709 
L 92.640083 53.939574 
L 92.92053 53.720436 
L 93.747884 53.431008 
L 93.823791 53.202057 
L 94.04352 52.969638 
L 94.950816 52.823546 
L 95.10686 52.375457 
L 95.514636 52.17624 
L 96.711056 51.943821 
L 97.050265 51.124716 
L 97.413392 50.845812 
L 97.773784 50.742862 
L 97.838938 50.6059 
L 98.532682 50.389848 
L 100.550935 50.110945 
L 101.339776 49.28636 
L 101.908776 49.067222 
L 102.151701 48.848083 
L 102.837762 48.544804 
L 102.844716 48.398712 
L 104.324822 47.953006 
L 104.47116 47.488168 
L 104.817968 47.264432 
L 107.03835 47.11834 
L 107.981915 46.630084 
L 108.702095 45.981864 
L 109.898747 45.41359 
L 110.381148 44.524048 
L 110.446264 44.245145 
L 111.201244 43.956306 
L 111.625798 43.531265 
L 112.32501 43.07511 
L 112.354575 42.855972 
L 112.566527 42.633658 
L 113.928787 42.264277 
L 114.322326 41.928929 
L 116.262001 41.599043 
L 116.634317 41.265882 
L 117.838276 41.135884 
L 118.151602 40.803983 
L 118.209303 40.287744 
L 118.816286 40.171534 
L 118.866022 39.986718 
L 119.810797 39.876361 
L 121.80804 39.331154 
L 123.564912 39.115102 
L 123.996495 38.733624 
L 125.195786 38.514464 
L 125.958406 38.130383 
L 126.195269 37.945567 
L 127.304876 37.69936 
L 127.762687 37.569363 
L 127.922496 37.370146 
L 128.387661 37.151008 
L 129.760002 37.014046 
L 130.800178 36.69862 
L 130.80748 36.496782 
L 131.485236 36.393831 
L 132.797494 35.839345 
L 137.391428 34.840051 
L 137.774686 34.517962 
L 140.16612 33.585733 
L 141.342379 33.400918 
L 141.505641 33.181779 
L 142.304396 32.718061 
L 142.342986 32.521398 
L 143.864658 32.219494 
L 146.29442 31.763361 
L 146.607078 31.544223 
L 147.42559 31.19221 
L 148.671626 31.007395 
L 149.576766 30.575759 
L 152.772862 30.3088 
L 152.869366 30.205849 
L 154.28794 30.009187 
L 154.380696 29.790048 
L 155.706527 29.602979 
L 161.113628 29.285532 
L 161.425537 29.066393 
L 164.340643 28.847255 
L 164.650468 28.710293 
L 165.503534 28.442206 
L 167.183989 28.255136 
L 173.498762 28.022188 
L 177.270423 27.782276 
L 178.1874 27.343999 
L 181.916741 26.84701 
L 185.254886 26.529943 
L 187.723668 26.181314 
L 194.444549 25.874294 
L 197.953354 25.454805 
L 199.962776 25.324808 
L 199.989523 25.005231 
L 205.449843 24.772812 
L 207.187023 24.576149 
L 221.914 24.137873 
L 223.54026 23.905453 
L 230.432129 23.516546 
L 240.515489 23.284127 
L 240.706027 23.163342 
L 256.016345 23.060391 
L 256.207009 22.923429 
L 273.657143 22.704291 
L 274.223442 22.471872 
L 279.348013 22.25582 
L 280.849397 21.856034 
L 285.194887 21.659372 
L 292.947665 21.472302 
L 365.968854 21.107072 
L 599.420313 20.708571 
L 599.420313 20.708571 
" style="fill:none;stroke:#d62728;stroke-linecap:square;stroke-width:1.5;"/>
   </g>
   <g id="line2d_17">
    <path clip-path="url(#p4f739f1440)" d="M 41.420313 301.387557 
L 41.660933 301.067981 
L 41.67189 270.880803 
L 41.902594 270.012519 
L 41.923468 252.83743 
L 42.142175 252.517853 
L 42.175046 235.31543 
L 42.382796 234.995853 
L 42.426624 220.972275 
L 42.634412 220.29206 
L 42.672557 213.836235 
L 42.869663 212.988262 
L 42.92978 208.61388 
L 43.108299 208.324452 
L 43.126735 202.907541 
L 43.173454 199.824066 
L 43.34944 199.24521 
L 43.628756 193.028027 
L 43.874138 189.813058 
L 43.916957 188.334633 
L 44.087848 188.102213 
L 44.18767 184.82615 
L 44.331617 184.5972 
L 44.439248 181.269677 
L 44.557856 180.701346 
L 44.690826 178.419743 
L 44.816834 177.911889 
L 44.926596 173.368149 
L 45.059443 173.139199 
L 45.177045 170.896722 
L 45.414943 169.026992 
L 45.550047 167.974045 
L 45.928391 163.990018 
L 46.035898 163.086903 
L 46.17884 161.555982 
L 46.369315 160.010683 
L 46.663266 159.037866 
L 47.000313 156.307072 
L 47.039402 155.72139 
L 47.206606 155.275662 
L 47.606565 153.722531 
L 47.772327 153.338499 
L 47.979302 152.286212 
L 48.11929 152.019253 
L 48.161252 151.903044 
L 48.315282 150.18776 
L 48.43288 149.668502 
L 48.536407 148.46515 
L 48.660581 148.23273 
L 48.708079 147.734689 
L 48.863621 147.28787 
L 48.974024 146.80975 
L 49.15991 146.424424 
L 49.217692 146.225207 
L 49.560896 145.962905 
L 49.659239 145.335372 
L 49.685124 144.325661 
L 50.188536 142.32074 
L 50.192365 142.121523 
L 50.408232 142.005314 
L 50.47712 141.313593 
L 50.639443 140.619804 
L 50.699962 139.904022 
L 50.848503 139.774025 
L 51.070867 138.88101 
L 52.155883 135.224734 
L 52.585275 134.578292 
L 52.655212 134.246031 
L 52.817966 133.80771 
L 52.904876 133.117389 
L 53.005088 132.838486 
L 53.329606 132.476069 
L 54.225255 129.824924 
L 54.402863 129.509498 
L 54.502368 129.076661 
L 54.753946 128.808768 
L 55.095586 127.88785 
L 55.974689 126.033472 
L 56.117634 125.344324 
L 56.245225 124.382281 
L 56.514992 124.060169 
L 56.70466 123.831219 
L 56.899507 122.401721 
L 57.180242 122.062773 
L 57.269726 121.730872 
L 57.772882 121.166551 
L 58.147829 120.781224 
L 58.300174 120.272658 
L 58.484533 119.581274 
L 58.49437 119.444313 
L 58.842476 119.27937 
L 59.146487 118.454243 
L 59.396804 117.930316 
L 59.605134 117.530628 
L 59.858573 117.301678 
L 59.890696 116.866487 
L 60.343791 115.801175 
L 60.473971 115.527252 
L 61.043396 115.32135 
L 61.071617 114.863449 
L 61.294974 114.760499 
L 61.392377 114.326241 
L 61.546552 114.093293 
L 61.612722 113.722277 
L 62.042052 113.242544 
L 62.068985 113.023406 
L 62.28466 112.794455 
L 62.321009 112.578403 
L 62.768597 112.078112 
L 62.797761 111.63666 
L 63.005906 111.369701 
L 63.45981 111.259344 
L 64.139776 110.326171 
L 64.31391 110.22322 
L 64.458122 109.246735 
L 65.348694 108.28372 
L 65.362519 108.098904 
L 65.832813 107.499999 
L 65.945117 107.045266 
L 66.23134 106.915269 
L 66.339752 106.331953 
L 66.578112 106.126051 
L 66.660224 105.715166 
L 67.155124 105.239681 
L 67.170421 105.020543 
L 67.86466 104.545385 
L 68.074777 104.071587 
L 68.572991 103.15989 
L 68.75394 103.008012 
L 69.492687 102.856134 
L 69.599677 102.261953 
L 69.658202 101.98305 
L 70.035697 101.471727 
L 70.131722 101.139465 
L 70.375458 100.758471 
L 70.571379 100.340116 
L 70.801514 99.932986 
L 70.880715 99.713826 
L 71.441655 99.583828 
L 71.830347 99.108262 
L 72.060491 98.520173 
L 72.364406 98.417222 
L 72.757709 97.402131 
L 74.053348 96.02543 
L 74.125452 95.785517 
L 74.415095 95.391624 
L 75.031836 94.306306 
L 76.123668 93.689805 
L 76.264854 93.490589 
L 77.145922 92.868329 
L 78.457867 90.918402 
L 78.537277 90.797617 
L 79.070832 90.518714 
L 79.493324 89.854658 
L 80.118299 89.509498 
L 80.239882 89.17019 
L 80.265321 88.985375 
L 80.774252 88.766237 
L 81.208139 88.263363 
L 81.713529 88.076294 
L 81.935965 87.120325 
L 83.18226 87.017374 
L 83.734281 85.496328 
L 85.313402 84.555728 
L 86.000205 84.445371 
L 86.011579 84.246154 
L 86.751551 83.648571 
L 87.010925 83.299942 
L 87.222607 82.385388 
L 87.35026 82.200572 
L 88.716976 81.99467 
L 88.783708 81.848578 
L 89.47171 81.745627 
L 89.553705 81.61563 
L 90.510498 81.35918 
L 91.786698 80.047746 
L 92.487277 79.762019 
L 92.490646 79.659068 
L 92.779139 79.344255 
L 92.950656 78.992243 
L 93.496958 77.885541 
L 94.251692 77.78259 
L 94.622086 77.174174 
L 95.347829 77.057964 
L 96.018158 76.668703 
L 96.601687 76.531742 
L 96.971205 76.209119 
L 97.195956 76.007281 
L 97.344038 75.671103 
L 98.272198 75.331795 
L 98.319218 75.144726 
L 100.341118 74.617366 
L 100.590782 74.501157 
L 100.871241 74.065636 
L 101.295876 73.657897 
L 103.03539 73.324273 
L 103.337091 72.762357 
L 103.586755 72.646148 
L 103.74365 72.413728 
L 104.272641 72.14677 
L 104.580957 71.927631 
L 104.585413 71.695212 
L 105.552659 71.476073 
L 106.439443 70.643881 
L 106.524361 70.205605 
L 106.830592 69.950776 
L 107.454374 69.751559 
L 107.489492 69.614598 
L 108.646261 69.297777 
L 108.819875 68.831804 
L 110.559542 68.526204 
L 111.292467 67.843347 
L 111.358996 67.239888 
L 111.592309 66.950461 
L 111.625798 66.731322 
L 112.571404 66.532106 
L 113.074004 66.098829 
L 113.923195 65.961868 
L 114.001718 65.76003 
L 114.62951 65.460416 
L 114.881088 64.900927 
L 115.570648 64.784718 
L 115.787908 64.568666 
L 117.243531 63.780631 
L 117.318299 63.664421 
L 118.624747 63.417102 
L 118.809002 63.306745 
L 120.314272 63.06975 
L 120.331871 62.884935 
L 120.510747 62.655984 
L 121.134598 62.41899 
L 121.31182 62.288992 
L 121.943702 62.137114 
L 121.966399 61.908164 
L 122.272389 61.62926 
L 123.183162 61.222553 
L 124.392486 60.771289 
L 124.59893 60.538869 
L 124.635095 60.309919 
L 125.057896 60.193709 
L 125.266131 59.977657 
L 125.95052 59.764349 
L 126.322687 59.380268 
L 127.607426 58.930419 
L 127.658885 58.711281 
L 128.214722 58.505379 
L 130.300849 58.243077 
L 130.816917 57.920988 
L 133.796151 57.269384 
L 134.013132 57.084568 
L 134.545145 56.74922 
L 135.83192 56.482343 
L 136.330134 55.80867 
L 137.391428 55.6216 
L 138.201454 55.342697 
L 139.391629 55.110278 
L 141.785413 54.864071 
L 143.352988 54.637503 
L 144.352351 54.485625 
L 144.359559 54.348664 
L 144.491928 54.149447 
L 145.878301 53.800312 
L 146.407337 53.405199 
L 149.025682 52.678888 
L 150.523668 52.562678 
L 150.583631 52.363461 
L 152.030512 52.007362 
L 153.068541 51.717934 
L 153.309682 51.428506 
L 155.799148 50.882685 
L 156.172298 50.451904 
L 157.146192 50.109041 
L 157.514272 49.992831 
L 158.03214 49.488695 
L 159.088748 49.342603 
L 159.866032 48.958305 
L 159.948916 48.821344 
L 160.785049 48.531916 
L 161.009463 48.169499 
L 162.577752 47.890596 
L 163.981027 47.769811 
L 164.229046 47.570594 
L 164.754541 47.267315 
L 166.331289 46.272595 
L 167.741601 45.937247 
L 167.916593 45.750177 
L 168.282682 45.534125 
L 169.445212 45.301177 
L 170.09437 45.164216 
L 170.208485 45.012338 
L 170.731404 44.779389 
L 171.084171 44.42329 
L 171.335411 44.23622 
L 172.068015 44.049151 
L 172.073971 43.91219 
L 175.490111 43.79598 
L 176.729847 43.576842 
L 176.775523 43.43988 
L 177.182629 43.150452 
L 178.260224 42.897281 
L 178.417249 42.607261 
L 178.985413 42.491051 
L 180.982729 42.374841 
L 181.648139 42.145891 
L 181.773151 41.946674 
L 182.098836 41.816677 
L 182.12706 41.537774 
L 182.375965 41.308823 
L 183.712741 41.086509 
L 185.968415 40.804634 
L 186.838494 40.316378 
L 189.294034 40.021438 
L 189.721955 39.73201 
L 190.137829 39.595048 
L 193.625001 39.305028 
L 197.834915 38.853448 
L 197.974402 38.688505 
L 198.958568 38.572296 
L 199.004773 38.370458 
L 199.914451 38.267507 
L 200.017444 38.035087 
L 202.703534 37.566566 
L 202.933387 37.463615 
L 204.201521 37.347406 
L 204.749277 37.150743 
L 205.949172 37.034533 
L 207.095541 36.599343 
L 207.685564 36.453251 
L 207.849878 36.2243 
L 209.694138 36.00514 
L 212.903239 35.058863 
L 213.16868 34.839725 
L 213.897457 34.620586 
L 214.849392 34.490589 
L 215.597935 34.271451 
L 216.868861 34.106508 
L 219.181386 33.990298 
L 219.739882 33.660802 
L 222.808049 33.557852 
L 224.738792 33.361189 
L 225.237783 32.89635 
L 226.920984 32.557826 
L 231.680468 32.268398 
L 233.088575 32.04926 
L 236.489533 31.610983 
L 237.461235 31.391845 
L 244.241182 31.162894 
L 245.696834 30.933944 
L 245.816811 30.746875 
L 248.635811 30.527736 
L 250.33629 30.08946 
L 260.138776 29.887622 
L 264.967667 29.570555 
L 270.559115 29.433594 
L 272.786166 29.217542 
L 279.600178 29.101332 
L 281.782043 28.739727 
L 288.721485 28.533825 
L 296.24922 28.184689 
L 323.790782 27.706063 
L 324.449634 27.290043 
L 329.898535 26.845041 
L 330.065948 26.555613 
L 334.868527 26.555613 
L 339.519641 26.439403 
L 340.193865 26.149975 
L 341.049708 26.047024 
L 366.982729 25.507585 
L 376.270628 25.172214 
L 376.847279 24.882786 
L 378.499843 24.453704 
L 401.935749 23.902304 
L 403.927233 23.404263 
L 444.379683 22.75693 
L 451.33476 22.555092 
L 453.143726 22.368022 
L 474.745225 22.015009 
L 475.854448 21.82794 
L 505.294015 21.329898 
L 526.648321 21.142829 
L 552.37468 20.708571 
L 599.420313 20.708571 
L 599.420313 20.708571 
" style="fill:none;stroke:#9467bd;stroke-linecap:square;stroke-width:1.5;"/>
   </g>
   <g id="line2d_18">
    <path clip-path="url(#p4f739f1440)" d="M 41.420313 434.88 
L 599.420313 20.708571 
" style="fill:none;stroke:#000000;stroke-dasharray:3.7,1.6;stroke-dashoffset:0;"/>
   </g>
   <g id="patch_3">
    <path d="M 41.420313 434.88 
L 41.420313 0 
" style="fill:none;stroke:#000000;stroke-linecap:square;stroke-linejoin:miter;stroke-width:0.8;"/>
   </g>
   <g id="patch_4">
    <path d="M 599.420313 434.88 
L 599.420313 0 
" style="fill:none;stroke:#000000;stroke-linecap:square;stroke-linejoin:miter;stroke-width:0.8;"/>
   </g>
   <g id="patch_5">
    <path d="M 41.420313 434.88 
L 599.420313 434.88 
" style="fill:none;stroke:#000000;stroke-linecap:square;stroke-linejoin:miter;stroke-width:0.8;"/>
   </g>
   <g id="patch_6">
    <path d="M 41.420313 -0 
L 599.420313 -0 
" style="fill:none;stroke:#000000;stroke-linecap:square;stroke-linejoin:miter;stroke-width:0.8;"/>
   </g>
   <g id="legend_1">
    <g id="patch_7">
     <path d="M 399.090313 428.38 
L 590.320312 428.38 
Q 592.920313 428.38 592.920313 425.78 
L 592.920313 309.931875 
Q 592.920313 307.331875 590.320312 307.331875 
L 399.090313 307.331875 
Q 396.490313 307.331875 396.490313 309.931875 
L 396.490313 425.78 
Q 396.490313 428.38 399.090313 428.38 
z
" style="fill:#ffffff;opacity:0.8;stroke:#cccccc;stroke-linejoin:miter;"/>
    </g>
    <g id="text_15">
     <!-- Models -->
     <defs>
      <path d="M 9.8125 72.90625 
L 24.515625 72.90625 
L 43.109375 23.296875 
L 61.8125 72.90625 
L 76.515625 72.90625 
L 76.515625 0 
L 66.890625 0 
L 66.890625 64.015625 
L 48.09375 14.015625 
L 38.1875 14.015625 
L 19.390625 64.015625 
L 19.390625 0 
L 9.8125 0 
z
" id="DejaVuSans-77"/>
      <path d="M 45.40625 46.390625 
L 45.40625 75.984375 
L 54.390625 75.984375 
L 54.390625 0 
L 45.40625 0 
L 45.40625 8.203125 
Q 42.578125 3.328125 38.25 0.953125 
Q 33.9375 -1.421875 27.875 -1.421875 
Q 17.96875 -1.421875 11.734375 6.484375 
Q 5.515625 14.40625 5.515625 27.296875 
Q 5.515625 40.1875 11.734375 48.09375 
Q 17.96875 56 27.875 56 
Q 33.9375 56 38.25 53.625 
Q 42.578125 51.265625 45.40625 46.390625 
z
M 14.796875 27.296875 
Q 14.796875 17.390625 18.875 11.75 
Q 22.953125 6.109375 30.078125 6.109375 
Q 37.203125 6.109375 41.296875 11.75 
Q 45.40625 17.390625 45.40625 27.296875 
Q 45.40625 37.203125 41.296875 42.84375 
Q 37.203125 48.484375 30.078125 48.484375 
Q 22.953125 48.484375 18.875 42.84375 
Q 14.796875 37.203125 14.796875 27.296875 
z
" id="DejaVuSans-100"/>
     </defs>
     <g transform="translate(468.278359 323.929531)scale(0.15 -0.15)">
      <use xlink:href="#DejaVuSans-77"/>
      <use x="86.279297" xlink:href="#DejaVuSans-111"/>
      <use x="147.460938" xlink:href="#DejaVuSans-100"/>
      <use x="210.9375" xlink:href="#DejaVuSans-101"/>
      <use x="272.460938" xlink:href="#DejaVuSans-108"/>
      <use x="300.244141" xlink:href="#DejaVuSans-115"/>
     </g>
    </g>
    <g id="line2d_19">
     <path d="M 401.690313 338.877031 
L 427.690313 338.877031 
" style="fill:none;stroke:#1f77b4;stroke-linecap:square;stroke-width:1.5;"/>
    </g>
    <g id="line2d_20"/>
    <g id="text_16">
     <!-- cnn (area = 0.95) -->
     <defs>
      <path d="M 48.78125 52.59375 
L 48.78125 44.1875 
Q 44.96875 46.296875 41.140625 47.34375 
Q 37.3125 48.390625 33.40625 48.390625 
Q 24.65625 48.390625 19.8125 42.84375 
Q 14.984375 37.3125 14.984375 27.296875 
Q 14.984375 17.28125 19.8125 11.734375 
Q 24.65625 6.203125 33.40625 6.203125 
Q 37.3125 6.203125 41.140625 7.25 
Q 44.96875 8.296875 48.78125 10.40625 
L 48.78125 2.09375 
Q 45.015625 0.34375 40.984375 -0.53125 
Q 36.96875 -1.421875 32.421875 -1.421875 
Q 20.0625 -1.421875 12.78125 6.34375 
Q 5.515625 14.109375 5.515625 27.296875 
Q 5.515625 40.671875 12.859375 48.328125 
Q 20.21875 56 33.015625 56 
Q 37.15625 56 41.109375 55.140625 
Q 45.0625 54.296875 48.78125 52.59375 
z
" id="DejaVuSans-99"/>
      <path d="M 54.890625 33.015625 
L 54.890625 0 
L 45.90625 0 
L 45.90625 32.71875 
Q 45.90625 40.484375 42.875 44.328125 
Q 39.84375 48.1875 33.796875 48.1875 
Q 26.515625 48.1875 22.3125 43.546875 
Q 18.109375 38.921875 18.109375 30.90625 
L 18.109375 0 
L 9.078125 0 
L 9.078125 54.6875 
L 18.109375 54.6875 
L 18.109375 46.1875 
Q 21.34375 51.125 25.703125 53.5625 
Q 30.078125 56 35.796875 56 
Q 45.21875 56 50.046875 50.171875 
Q 54.890625 44.34375 54.890625 33.015625 
z
" id="DejaVuSans-110"/>
      <path d="M 31 75.875 
Q 24.46875 64.65625 21.28125 53.65625 
Q 18.109375 42.671875 18.109375 31.390625 
Q 18.109375 20.125 21.3125 9.0625 
Q 24.515625 -2 31 -13.1875 
L 23.1875 -13.1875 
Q 15.875 -1.703125 12.234375 9.375 
Q 8.59375 20.453125 8.59375 31.390625 
Q 8.59375 42.28125 12.203125 53.3125 
Q 15.828125 64.359375 23.1875 75.875 
z
" id="DejaVuSans-40"/>
      <path d="M 10.59375 45.40625 
L 73.1875 45.40625 
L 73.1875 37.203125 
L 10.59375 37.203125 
z
M 10.59375 25.484375 
L 73.1875 25.484375 
L 73.1875 17.1875 
L 10.59375 17.1875 
z
" id="DejaVuSans-61"/>
      <path d="M 10.984375 1.515625 
L 10.984375 10.5 
Q 14.703125 8.734375 18.5 7.8125 
Q 22.3125 6.890625 25.984375 6.890625 
Q 35.75 6.890625 40.890625 13.453125 
Q 46.046875 20.015625 46.78125 33.40625 
Q 43.953125 29.203125 39.59375 26.953125 
Q 35.25 24.703125 29.984375 24.703125 
Q 19.046875 24.703125 12.671875 31.3125 
Q 6.296875 37.9375 6.296875 49.421875 
Q 6.296875 60.640625 12.9375 67.421875 
Q 19.578125 74.21875 30.609375 74.21875 
Q 43.265625 74.21875 49.921875 64.515625 
Q 56.59375 54.828125 56.59375 36.375 
Q 56.59375 19.140625 48.40625 8.859375 
Q 40.234375 -1.421875 26.421875 -1.421875 
Q 22.703125 -1.421875 18.890625 -0.6875 
Q 15.09375 0.046875 10.984375 1.515625 
z
M 30.609375 32.421875 
Q 37.25 32.421875 41.125 36.953125 
Q 45.015625 41.5 45.015625 49.421875 
Q 45.015625 57.28125 41.125 61.84375 
Q 37.25 66.40625 30.609375 66.40625 
Q 23.96875 66.40625 20.09375 61.84375 
Q 16.21875 57.28125 16.21875 49.421875 
Q 16.21875 41.5 20.09375 36.953125 
Q 23.96875 32.421875 30.609375 32.421875 
z
" id="DejaVuSans-57"/>
      <path d="M 10.796875 72.90625 
L 49.515625 72.90625 
L 49.515625 64.59375 
L 19.828125 64.59375 
L 19.828125 46.734375 
Q 21.96875 47.46875 24.109375 47.828125 
Q 26.265625 48.1875 28.421875 48.1875 
Q 40.625 48.1875 47.75 41.5 
Q 54.890625 34.8125 54.890625 23.390625 
Q 54.890625 11.625 47.5625 5.09375 
Q 40.234375 -1.421875 26.90625 -1.421875 
Q 22.3125 -1.421875 17.546875 -0.640625 
Q 12.796875 0.140625 7.71875 1.703125 
L 7.71875 11.625 
Q 12.109375 9.234375 16.796875 8.0625 
Q 21.484375 6.890625 26.703125 6.890625 
Q 35.15625 6.890625 40.078125 11.328125 
Q 45.015625 15.765625 45.015625 23.390625 
Q 45.015625 31 40.078125 35.4375 
Q 35.15625 39.890625 26.703125 39.890625 
Q 22.75 39.890625 18.8125 39.015625 
Q 14.890625 38.140625 10.796875 36.28125 
z
" id="DejaVuSans-53"/>
      <path d="M 8.015625 75.875 
L 15.828125 75.875 
Q 23.140625 64.359375 26.78125 53.3125 
Q 30.421875 42.28125 30.421875 31.390625 
Q 30.421875 20.453125 26.78125 9.375 
Q 23.140625 -1.703125 15.828125 -13.1875 
L 8.015625 -13.1875 
Q 14.5 -2 17.703125 9.0625 
Q 20.90625 20.125 20.90625 31.390625 
Q 20.90625 42.671875 17.703125 53.65625 
Q 14.5 64.65625 8.015625 75.875 
z
" id="DejaVuSans-41"/>
     </defs>
     <g transform="translate(438.090312 343.427031)scale(0.13 -0.13)">
      <use xlink:href="#DejaVuSans-99"/>
      <use x="54.980469" xlink:href="#DejaVuSans-110"/>
      <use x="118.359375" xlink:href="#DejaVuSans-110"/>
      <use x="181.738281" xlink:href="#DejaVuSans-32"/>
      <use x="213.525391" xlink:href="#DejaVuSans-40"/>
      <use x="252.539062" xlink:href="#DejaVuSans-97"/>
      <use x="313.818359" xlink:href="#DejaVuSans-114"/>
      <use x="352.681641" xlink:href="#DejaVuSans-101"/>
      <use x="414.205078" xlink:href="#DejaVuSans-97"/>
      <use x="475.484375" xlink:href="#DejaVuSans-32"/>
      <use x="507.271484" xlink:href="#DejaVuSans-61"/>
      <use x="591.060547" xlink:href="#DejaVuSans-32"/>
      <use x="622.847656" xlink:href="#DejaVuSans-48"/>
      <use x="686.470703" xlink:href="#DejaVuSans-46"/>
      <use x="718.257812" xlink:href="#DejaVuSans-57"/>
      <use x="781.880859" xlink:href="#DejaVuSans-53"/>
      <use x="845.503906" xlink:href="#DejaVuSans-41"/>
     </g>
    </g>
    <g id="line2d_21">
     <path d="M 401.690313 357.958594 
L 427.690313 357.958594 
" style="fill:none;stroke:#ff7f0e;stroke-linecap:square;stroke-width:1.5;"/>
    </g>
    <g id="line2d_22"/>
    <g id="text_17">
     <!-- mlp (area = 0.90) -->
     <defs>
      <path d="M 52 44.1875 
Q 55.375 50.25 60.0625 53.125 
Q 64.75 56 71.09375 56 
Q 79.640625 56 84.28125 50.015625 
Q 88.921875 44.046875 88.921875 33.015625 
L 88.921875 0 
L 79.890625 0 
L 79.890625 32.71875 
Q 79.890625 40.578125 77.09375 44.375 
Q 74.3125 48.1875 68.609375 48.1875 
Q 61.625 48.1875 57.5625 43.546875 
Q 53.515625 38.921875 53.515625 30.90625 
L 53.515625 0 
L 44.484375 0 
L 44.484375 32.71875 
Q 44.484375 40.625 41.703125 44.40625 
Q 38.921875 48.1875 33.109375 48.1875 
Q 26.21875 48.1875 22.15625 43.53125 
Q 18.109375 38.875 18.109375 30.90625 
L 18.109375 0 
L 9.078125 0 
L 9.078125 54.6875 
L 18.109375 54.6875 
L 18.109375 46.1875 
Q 21.1875 51.21875 25.484375 53.609375 
Q 29.78125 56 35.6875 56 
Q 41.65625 56 45.828125 52.96875 
Q 50 49.953125 52 44.1875 
z
" id="DejaVuSans-109"/>
      <path d="M 18.109375 8.203125 
L 18.109375 -20.796875 
L 9.078125 -20.796875 
L 9.078125 54.6875 
L 18.109375 54.6875 
L 18.109375 46.390625 
Q 20.953125 51.265625 25.265625 53.625 
Q 29.59375 56 35.59375 56 
Q 45.5625 56 51.78125 48.09375 
Q 58.015625 40.1875 58.015625 27.296875 
Q 58.015625 14.40625 51.78125 6.484375 
Q 45.5625 -1.421875 35.59375 -1.421875 
Q 29.59375 -1.421875 25.265625 0.953125 
Q 20.953125 3.328125 18.109375 8.203125 
z
M 48.6875 27.296875 
Q 48.6875 37.203125 44.609375 42.84375 
Q 40.53125 48.484375 33.40625 48.484375 
Q 26.265625 48.484375 22.1875 42.84375 
Q 18.109375 37.203125 18.109375 27.296875 
Q 18.109375 17.390625 22.1875 11.75 
Q 26.265625 6.109375 33.40625 6.109375 
Q 40.53125 6.109375 44.609375 11.75 
Q 48.6875 17.390625 48.6875 27.296875 
z
" id="DejaVuSans-112"/>
     </defs>
     <g transform="translate(438.090312 362.508594)scale(0.13 -0.13)">
      <use xlink:href="#DejaVuSans-109"/>
      <use x="97.412109" xlink:href="#DejaVuSans-108"/>
      <use x="125.195312" xlink:href="#DejaVuSans-112"/>
      <use x="188.671875" xlink:href="#DejaVuSans-32"/>
      <use x="220.458984" xlink:href="#DejaVuSans-40"/>
      <use x="259.472656" xlink:href="#DejaVuSans-97"/>
      <use x="320.751953" xlink:href="#DejaVuSans-114"/>
      <use x="359.615234" xlink:href="#DejaVuSans-101"/>
      <use x="421.138672" xlink:href="#DejaVuSans-97"/>
      <use x="482.417969" xlink:href="#DejaVuSans-32"/>
      <use x="514.205078" xlink:href="#DejaVuSans-61"/>
      <use x="597.994141" xlink:href="#DejaVuSans-32"/>
      <use x="629.78125" xlink:href="#DejaVuSans-48"/>
      <use x="693.404297" xlink:href="#DejaVuSans-46"/>
      <use x="725.191406" xlink:href="#DejaVuSans-57"/>
      <use x="788.814453" xlink:href="#DejaVuSans-48"/>
      <use x="852.4375" xlink:href="#DejaVuSans-41"/>
     </g>
    </g>
    <g id="line2d_23">
     <path d="M 401.690313 377.040156 
L 427.690313 377.040156 
" style="fill:none;stroke:#2ca02c;stroke-linecap:square;stroke-width:1.5;"/>
    </g>
    <g id="line2d_24"/>
    <g id="text_18">
     <!-- lstm (area = 0.88) -->
     <g transform="translate(438.090312 381.590156)scale(0.13 -0.13)">
      <use xlink:href="#DejaVuSans-108"/>
      <use x="27.783203" xlink:href="#DejaVuSans-115"/>
      <use x="79.882812" xlink:href="#DejaVuSans-116"/>
      <use x="119.091797" xlink:href="#DejaVuSans-109"/>
      <use x="216.503906" xlink:href="#DejaVuSans-32"/>
      <use x="248.291016" xlink:href="#DejaVuSans-40"/>
      <use x="287.304688" xlink:href="#DejaVuSans-97"/>
      <use x="348.583984" xlink:href="#DejaVuSans-114"/>
      <use x="387.447266" xlink:href="#DejaVuSans-101"/>
      <use x="448.970703" xlink:href="#DejaVuSans-97"/>
      <use x="510.25" xlink:href="#DejaVuSans-32"/>
      <use x="542.037109" xlink:href="#DejaVuSans-61"/>
      <use x="625.826172" xlink:href="#DejaVuSans-32"/>
      <use x="657.613281" xlink:href="#DejaVuSans-48"/>
      <use x="721.236328" xlink:href="#DejaVuSans-46"/>
      <use x="753.023438" xlink:href="#DejaVuSans-56"/>
      <use x="816.646484" xlink:href="#DejaVuSans-56"/>
      <use x="880.269531" xlink:href="#DejaVuSans-41"/>
     </g>
    </g>
    <g id="line2d_25">
     <path d="M 401.690313 396.121719 
L 427.690313 396.121719 
" style="fill:none;stroke:#d62728;stroke-linecap:square;stroke-width:1.5;"/>
    </g>
    <g id="line2d_26"/>
    <g id="text_19">
     <!-- cnn_mlp (area = 0.98) -->
     <defs>
      <path d="M 50.984375 -16.609375 
L 50.984375 -23.578125 
L -0.984375 -23.578125 
L -0.984375 -16.609375 
z
" id="DejaVuSans-95"/>
     </defs>
     <g transform="translate(438.090312 400.671719)scale(0.13 -0.13)">
      <use xlink:href="#DejaVuSans-99"/>
      <use x="54.980469" xlink:href="#DejaVuSans-110"/>
      <use x="118.359375" xlink:href="#DejaVuSans-110"/>
      <use x="181.738281" xlink:href="#DejaVuSans-95"/>
      <use x="231.738281" xlink:href="#DejaVuSans-109"/>
      <use x="329.150391" xlink:href="#DejaVuSans-108"/>
      <use x="356.933594" xlink:href="#DejaVuSans-112"/>
      <use x="420.410156" xlink:href="#DejaVuSans-32"/>
      <use x="452.197266" xlink:href="#DejaVuSans-40"/>
      <use x="491.210938" xlink:href="#DejaVuSans-97"/>
      <use x="552.490234" xlink:href="#DejaVuSans-114"/>
      <use x="591.353516" xlink:href="#DejaVuSans-101"/>
      <use x="652.876953" xlink:href="#DejaVuSans-97"/>
      <use x="714.15625" xlink:href="#DejaVuSans-32"/>
      <use x="745.943359" xlink:href="#DejaVuSans-61"/>
      <use x="829.732422" xlink:href="#DejaVuSans-32"/>
      <use x="861.519531" xlink:href="#DejaVuSans-48"/>
      <use x="925.142578" xlink:href="#DejaVuSans-46"/>
      <use x="956.929688" xlink:href="#DejaVuSans-57"/>
      <use x="1020.552734" xlink:href="#DejaVuSans-56"/>
      <use x="1084.175781" xlink:href="#DejaVuSans-41"/>
     </g>
    </g>
    <g id="line2d_27">
     <path d="M 401.690313 415.564844 
L 427.690313 415.564844 
" style="fill:none;stroke:#9467bd;stroke-linecap:square;stroke-width:1.5;"/>
    </g>
    <g id="line2d_28"/>
    <g id="text_20">
     <!-- cnn_lstm (area = 0.96) -->
     <g transform="translate(438.090312 420.114844)scale(0.13 -0.13)">
      <use xlink:href="#DejaVuSans-99"/>
      <use x="54.980469" xlink:href="#DejaVuSans-110"/>
      <use x="118.359375" xlink:href="#DejaVuSans-110"/>
      <use x="181.738281" xlink:href="#DejaVuSans-95"/>
      <use x="231.738281" xlink:href="#DejaVuSans-108"/>
      <use x="259.521484" xlink:href="#DejaVuSans-115"/>
      <use x="311.621094" xlink:href="#DejaVuSans-116"/>
      <use x="350.830078" xlink:href="#DejaVuSans-109"/>
      <use x="448.242188" xlink:href="#DejaVuSans-32"/>
      <use x="480.029297" xlink:href="#DejaVuSans-40"/>
      <use x="519.042969" xlink:href="#DejaVuSans-97"/>
      <use x="580.322266" xlink:href="#DejaVuSans-114"/>
      <use x="619.185547" xlink:href="#DejaVuSans-101"/>
      <use x="680.708984" xlink:href="#DejaVuSans-97"/>
      <use x="741.988281" xlink:href="#DejaVuSans-32"/>
      <use x="773.775391" xlink:href="#DejaVuSans-61"/>
      <use x="857.564453" xlink:href="#DejaVuSans-32"/>
      <use x="889.351562" xlink:href="#DejaVuSans-48"/>
      <use x="952.974609" xlink:href="#DejaVuSans-46"/>
      <use x="984.761719" xlink:href="#DejaVuSans-57"/>
      <use x="1048.384766" xlink:href="#DejaVuSans-54"/>
      <use x="1112.007812" xlink:href="#DejaVuSans-41"/>
     </g>
    </g>
   </g>
  </g>
 </g>
 <defs>
  <clipPath id="p4f739f1440">
   <rect height="434.88" width="558" x="41.420313" y="-0"/>
  </clipPath>
 </defs>
</svg>
